<svg enable-background="new 0 0 64 64" height="512" viewBox="0 0 64 64" width="512" xmlns="http://www.w3.org/2000/svg"
     xmlns:xlink="http://www.w3.org/1999/xlink">
    <linearGradient id="a" gradientUnits="userSpaceOnUse" x1="32" x2="32" y1="63" y2="1">
        <stop offset="0" stop-color="#9f2fff"/>
        <stop offset="1" stop-color="#0bb1d3"/>
    </linearGradient>
    <path
        d="m57.338 16-8.591 9.665-1.494-1.329 7.409-8.336-7.409-8.335 1.494-1.329zm-18.085-9.665-8.591 9.665 8.591 9.665 1.494-1.329-7.409-8.336 7.409-8.335zm2.751 20.575 1.992.181 2-22-1.992-.181zm-20.751 12.754 7.409 8.336-7.409 8.336 1.494 1.328 8.591-9.664-8.591-9.664zm-8-1.328-8.591 9.664 8.591 9.664 1.494-1.328-7.409-8.336 7.409-8.336zm2.751 20.573 1.992.182 2-22-1.992-.182zm-9.004-37.909h-2v2h2zm4 0h-2v2h2zm4 0h-2v2h2zm8 8h-2v2h2zm-4 0h-2v2h2zm-14 2h10v-2h-10zm36 16h2v-8h-2zm12 0h2v-8h-2zm-16 0h-2c-1.103 0-2-.897-2-2v-4c0-1.103.897-2 2-2h2c1.103 0 2 .897 2 2v4c0 1.103-.897 2-2 2zm-2-2h2.002l-.002-4h-2zm14 2h-2c-1.103 0-2-.897-2-2v-4c0-1.103.897-2 2-2h2c1.103 0 2 .897 2 2v4c0 1.103-.897 2-2 2zm-2-2h2.002l-.002-4h-2zm-14 12h2v-8h-2zm10-6v4c0 1.103-.897 2-2 2h-2c-1.103 0-2-.897-2-2v-4c0-1.103.897-2 2-2h2c1.103 0 2 .897 2 2zm-2 0h-2v4h2zm4 6h2v-8h-2zm10-6v4c0 1.103-.897 2-2 2h-2c-1.103 0-2-.897-2-2v-4c0-1.103.897-2 2-2h2c1.103 0 2 .897 2 2zm-2 0h-2v4h2zm10-45v20c0 2.414-1.721 4.434-4 4.899v32.101h-58v-46h24v-11c0-2.757 2.243-5 5-5h28c2.757 0 5 2.243 5 5zm-60 13v6h22v-6zm54 42v-30h-27c-2.414 0-4.434-1.721-4.899-4h-22.101v34zm4-55c0-1.654-1.346-3-3-3h-28c-1.654 0-3 1.346-3 3v20c0 1.654 1.346 3 3 3h28c1.654 0 3-1.346 3-3zm-3 19c-.552 0-1 .448-1 1s.448 1 1 1 1-.448 1-1-.448-1-1-1zm0-20c-.552 0-1 .448-1 1s.448 1 1 1 1-.448 1-1-.448-1-1-1zm-28 20c-.552 0-1 .448-1 1s.448 1 1 1 1-.448 1-1-.448-1-1-1zm0-18c.552 0 1-.448 1-1s-.448-1-1-1-1 .448-1 1 .448 1 1 1z"
        fill="url(#a)"/>
</svg>
