<svg enable-background="new 0 0 64 64" height="512" viewBox="0 0 64 64" width="512" xmlns="http://www.w3.org/2000/svg" xmlns:xlink="http://www.w3.org/1999/xlink"><linearGradient id="a" gradientUnits="userSpaceOnUse" x1="32" x2="32" y1="63" y2="1"><stop offset="0" stop-color="#9f2fff"/><stop offset="1" stop-color="#0bb1d3"/></linearGradient><path d="m7 7h-2v-2h2zm4-2h-2v2h2zm4 0h-2v2h2zm48 21v16c0 2.757-2.243 5-5 5h-20c-.342 0-.677-.035-1-.101v11.101c0 2.757-2.243 5-5 5h-20c-2.757 0-5-2.243-5-5v-13h-6v-44h56v20h1c2.757 0 5 2.243 5 5zm-60-23v6h52v-6zm9 34h21v-11c0-2.757 2.243-5 5-5h17v-10h-52v32h4v-1c0-2.757 2.243-5 5-5zm23.031 9c-1.225-.912-2.031-2.359-2.031-4v-3h-21c-1.654 0-3 1.346-3 3v16c0 1.654 1.346 3 3 3h20c1.654 0 3-1.346 3-3v-12zm25.969-20c0-1.654-1.346-3-3-3h-20c-1.654 0-3 1.346-3 3v16c0 1.654 1.346 3 3 3h20c1.654 0 3-1.346 3-3zm-41.962 30.725 1.924.55 4-14-1.924-.55zm6.255-12.018 5.293 5.293-5.293 5.293 1.414 1.414 6.707-6.707-6.707-6.707zm-8-1.414-6.707 6.707 6.707 6.707 1.414-1.414-5.293-5.293 5.293-5.293zm35.707-18.293h6v18h-22v-14h6v12h2v-8h6v8h2zm-12 6h-2v10h2zm6 10h2v-6h-2zm8 0h2v-14h-2zm-24-6h-26v-22h26zm-2-20h-22v18h22zm24-2h-2v2h2zm-4 0h-2v2h2zm-4 0h-2v2h2zm-18 4h-18v2h18zm0 4h-18v2h18zm0 4h-18v2h18zm-2 6h2v-2h-2zm-4 0h2v-2h-2zm-4 0h2v-2h-2zm-4 0h2v-2h-2z" fill="url(#a)"/></svg>