<svg height="496pt" viewBox="0 0 496 496" width="496pt" xmlns="http://www.w3.org/2000/svg" xmlns:xlink="http://www.w3.org/1999/xlink"><linearGradient id="a" gradientUnits="userSpaceOnUse" x1="248" x2="248" y1="496" y2="0"><stop offset="0" stop-color="#9f2fff"/><stop offset="1" stop-color="#0bb1d3"/></linearGradient><path d="m464.609375 71.472656 9.292969-18.585937-30.78125-30.78125-18.585938 9.292969c-8.871094-5.214844-18.328125-9.152344-28.207031-11.726563l-6.558594-19.671875h-43.53125l-6.558593 19.671875c-9.878907 2.574219-19.335938 6.503906-28.207032 11.726563l-18.59375-9.292969-30.78125 30.773437 9.292969 18.585938c-5.207031 8.871094-9.144531 18.328125-11.726563 28.199218l-19.664062 6.566407v21.769531h-200c-22.054688 0-40 17.945312-40 40v240c0 22.054688 17.945312 40 40 40h104v32h-32v16h272v-16h-32v-32h104c22.054688 0 40-17.945312 40-40v-301.769531l-19.664062-6.558594c-2.582032-9.871094-6.519532-19.328125-11.726563-28.199219zm-128.609375 408.527344h-176v-32h176zm120-48h-416c-13.230469 0-24-10.769531-24-24v-8h464v8c0 13.230469-10.769531 24-24 24zm24-48h-464v-216c0-13.230469 10.769531-24 24-24h200v5.769531l19.664062 6.558594c2.582032 9.871094 6.511719 19.328125 11.726563 28.199219l-9.292969 18.585937 30.78125 30.78125 18.585938-9.292969c8.871094 5.214844 18.328125 9.152344 28.207031 11.726563l6.558594 19.671875h43.53125l6.558593-19.671875c9.878907-2.574219 19.335938-6.503906 28.207032-11.726563l18.585937 9.292969 30.78125-30.78125-9.292969-18.585937c5.207032-8.871094 9.140626-18.328125 11.726563-28.199219l3.671875-1.222656zm0-248v2.230469l-17.265625 5.761719-.964844 4.449218c-2.417969 11.125-6.808593 21.679688-13.035156 31.367188l-2.460937 3.832031 8.167968 16.320313-14.472656 14.472656-16.328125-8.167969-3.832031 2.46875c-9.6875 6.226563-20.242188 10.617187-31.359375 13.035156l-4.449219.964844-5.769531 17.265625h-20.46875l-5.761719-17.265625-4.449219-.964844c-11.125-2.417969-21.671875-6.808593-31.359375-13.035156l-3.832031-2.46875-16.328125 8.167969-14.472656-14.472656 8.167968-16.320313-2.460937-3.832031c-6.234375-9.6875-10.617187-20.242188-13.035156-31.367188l-.964844-4.449218-17.265625-5.761719v-20.46875l17.265625-5.761719.964844-4.449219c2.417969-11.125 6.808593-21.679687 13.035156-31.367187l2.460937-3.832032-8.167968-16.320312 14.472656-14.472656 16.328125 8.167968 3.832031-2.46875c9.6875-6.226562 20.242188-10.617187 31.359375-13.035156l4.449219-.964844 5.769531-17.257812h20.46875l5.761719 17.265625 4.449219.964844c11.125 2.417969 21.671875 6.808593 31.359375 13.035156l3.832031 2.46875 16.328125-8.167969 14.472656 14.472656-8.167968 16.320313 2.460937 3.832031c6.234375 9.6875 10.617187 20.242188 13.035156 31.367188l.964844 4.449218 17.265625 5.761719zm-112-88c-44.113281 0-80 35.886719-80 80s35.886719 80 80 80 80-35.886719 80-80-35.886719-80-80-80zm0 144c-35.289062 0-64-28.710938-64-64s28.710938-64 64-64 64 28.710938 64 64-28.710938 64-64 64zm0-96c-17.648438 0-32 14.351562-32 32s14.351562 32 32 32 32-14.351562 32-32-14.351562-32-32-32zm0 48c-8.824219 0-16-7.175781-16-16s7.175781-16 16-16 16 7.175781 16 16-7.175781 16-16 16zm-296 24h8v16h-8c-4.40625 0-8 3.585938-8 8v8c0 9.542969-4.199219 18.136719-10.855469 24 6.65625 5.863281 10.855469 14.457031 10.855469 24v8c0 4.414062 3.59375 8 8 8h8v16h-8c-13.230469 0-24-10.769531-24-24v-8c0-8.824219-7.175781-16-16-16v-16c8.824219 0 16-7.175781 16-16v-8c0-13.230469 10.769531-24 24-24zm240 120v16c-8.824219 0-16 7.175781-16 16v8c0 13.230469-10.769531 24-24 24h-8v-16h8c4.40625 0 8-3.585938 8-8v-8c0-9.542969 4.199219-18.136719 10.855469-24-6.65625-5.863281-10.855469-14.457031-10.855469-24v-8c0-4.414062-3.59375-8-8-8h-8v-16h8c13.230469 0 24 10.769531 24 24v8c0 8.824219 7.175781 16 16 16zm-216-112h152v16h-152zm32 32h120v16h-120zm-16 16h-16v-16h16zm-16 16h152v16h-152zm0 32h152v16h-152zm136 32h16v16h-16zm-16 16h-120v-16h120zm-120 16h152v16h-152zm0 0" fill="url(#a)"/></svg>