<svg enable-background="new 0 0 64 64" height="512" viewBox="0 0 64 64" width="512" xmlns="http://www.w3.org/2000/svg" xmlns:xlink="http://www.w3.org/1999/xlink"><linearGradient id="a" gradientUnits="userSpaceOnUse" x1="32" x2="32" y1="63" y2="1"><stop offset="0" stop-color="#9f2fff"/><stop offset="1" stop-color="#0bb1d3"/></linearGradient><path d="m9 57h2v2h-2zm4 2h2v-2h-2zm50-39c0 3.859-3.141 7-7 7h-1v26h2v5c0 2.757-2.243 5-5 5h-46c-2.757 0-5-2.243-5-5v-5h2v-33c0-2.757 2.243-5 5-5h11.111c1.038-1.015 2.39-1.705 3.894-1.921-.001-.027-.005-.052-.005-.079 0-6.617 5.383-12 12-12 3.749 0 7.24 1.76 9.508 4.715 1.089-.459 2.269-.715 3.492-.715 4.646 0 8.482 3.54 8.952 8.064 3.411.466 6.048 3.399 6.048 6.936zm-38 19v-4h-12v10h18v-6zm20-2v-10h-18v10zm-20-10h-1c-3.519 0-6.432-2.614-6.92-6h-8.08v28h40v-22h-2v12h-14v8h-22v-14h14zm30 28h-17.22l-.999 4h-15.562l-.999-4h-17.22v3c0 1.654 1.346 3 3 3h46c1.654 0 3-1.346 3-3zm-32.219 2h12.438l.501-2h-13.439zm30.219-30h-2v22c0 1.103-.897 2-2 2h-40c-1.103 0-2-.897-2-2v-28c0-1.103.897-2 2-2h8.08c.102-.706.308-1.378.605-2h-9.685c-1.654 0-3 1.346-3 3v33h48zm8-7c0-2.757-2.243-5-5-5h-1v-1c0-3.859-3.141-7-7-7-2.162 0-4.169.976-5.507 2.678l-1.572-1.236c.531-.676 1.152-1.25 1.828-1.738-1.892-2.328-4.721-3.704-7.749-3.704-5.514 0-10 4.486-10 10 0 1.609.37 3.146 1.102 4.568l-1.779.914c-.555-1.08-.917-2.221-1.122-3.398-2.393.4-4.201 2.444-4.201 4.916 0 2.757 2.243 5 5 5h32c2.757 0 5-2.243 5-5zm-23.948 2.684 1.896.633 4-12-1.896-.633zm6.307-9.915 5.078 4.231-5.078 4.231 1.281 1.537 6.922-5.768-6.922-5.769zm-8-1.538-6.922 5.769 6.922 5.769 1.281-1.537-5.078-4.232 5.078-4.231zm-6.359 19.769h14v-2h-14zm0 4h14v-2h-14zm-6 2h-8v2h8zm-8 6h14v-2h-14zm-4-12h2v-2h-2zm0-4h2v-2h2v-2h-4z" fill="url(#a)"/></svg>