<svg enable-background="new 0 0 64 64" height="512" viewBox="0 0 64 64" width="512" xmlns="http://www.w3.org/2000/svg" xmlns:xlink="http://www.w3.org/1999/xlink"><linearGradient id="a" gradientUnits="userSpaceOnUse" x1="32" x2="32" y1="63" y2="1"><stop offset="0" stop-color="#9f2fff"/><stop offset="1" stop-color="#0bb1d3"/></linearGradient><path d="m61 30c0-2.757-2.243-5-5-5h-.281l-.929-1.534c.154-.331.293-.663.416-.995l2.794-.687v-7.568l-2.794-.687c-.123-.332-.262-.664-.416-.995l1.492-2.465-5.352-5.352-2.464 1.493c-.331-.154-.663-.293-.995-.416l-.687-2.794h-7.568l-.687 2.794c-.332.123-.664.262-.995.416l-2.465-1.492-5.352 5.352 1.506 2.487c-.283.685-.67 1.735-.927 2.443h-10.022c1.667-1.467 2.726-3.61 2.726-6 0-4.411-3.589-8-8-8s-8 3.589-8 8c0 2.498 1.152 4.73 2.951 6.199-5.088.963-8.951 5.436-8.951 10.801v13h18v14h-2v5c0 2.757 2.243 5 5 5h36c2.757 0 5-2.243 5-5v-5h-2zm-28.759-19.626 3.133-3.133 2.074 1.255.498-.259c.573-.298 1.154-.541 1.725-.722l.536-.169.577-2.346h4.432l.577 2.347.536.169c.57.181 1.151.424 1.725.722l.498.259 2.074-1.255 3.133 3.133-1.255 2.074.259.498c.298.573.541 1.154.722 1.725l.169.536 2.346.576v4.432l-2.347.577-.169.536c-.181.57-.424 1.151-.722 1.725l-.259.498 1.255 2.074-3.133 3.133-2.074-1.255-.498.259c-.573.298-1.154.541-1.725.722l-.536.169-.576 2.346h-4.432l-.577-2.345-.534-.17c-.573-.182-1.154-.425-1.727-.723l-.498-.259-2.074 1.255-3.133-3.133 1.255-2.074-.259-.498c-.109-.21-.299-.62-.496-1.054h2.223c1.515 3.05 4.585 5 8.036 5 4.963 0 9-4.037 9-9s-4.037-9-9-9c-3.845 0-7.229 2.431-8.488 6h-2.085c.332-.899.676-1.797.81-2.054l.259-.498zm-1.029 13.089-.931 1.537h-6.281v-1.5c0-.827.673-1.5 1.5-1.5h5.049c.191.43.449 1.008.663 1.463zm9.177-6.934c.525-.931 1.515-1.529 2.611-1.529 1.654 0 3 1.346 3 3s-1.346 3-3 3c-.9 0-1.73-.423-2.295-1.104.188-.428.295-.899.295-1.396 0-.731-.227-1.409-.611-1.971zm-1.008 4.913c.933.978 2.235 1.558 3.619 1.558 2.757 0 5-2.243 5-5s-2.243-5-5-5c-1.71 0-3.26.881-4.17 2.266-.411-.17-.859-.266-1.33-.266h-.816c1.14-2.404 3.573-4 6.316-4 3.859 0 7 3.141 7 7s-3.141 7-7 7c-2.331 0-4.436-1.148-5.725-3h.225c.694 0 1.337-.209 1.881-.558zm-30.381-12.442c0-3.309 2.691-6 6-6s6 2.691 6 6-2.691 6-6 6-6-2.691-6-6zm-1 28v-15h-2v15h-3v-11c0-4.963 4.037-9 9-9h25.5c.827 0 1.5.673 1.5 1.5s-.673 1.5-1.5 1.5h-12c-1.93 0-3.5 1.57-3.5 3.5v1.924c-1.763.774-3 2.531-3 4.576v7zm13-7c0-1.654 1.346-3 3-3h6.787l4.282 4.282 2.465-1.492c.33.154.663.293.995.416l.687 2.794h7.568l.687-2.794c.332-.123.664-.262.995-.416l2.465 1.492 2.069-2.069v1.787h2v18h-30v-18h7v-2h-7c-1.103 0-2 .897-2 2v18c0 1.103.897 2 2 2h30c1.103 0 2-.897 2-2v-18c0-1.103-.897-2-2-2h-1.787l2-2h.787c1.654 0 3 1.346 3 3v23h-38zm40 28c0 1.654-1.346 3-3 3h-36c-1.654 0-3-1.346-3-3v-3h42zm-38 1h-2v-2h2zm4 0h-2v-2h2zm4 0h-2v-2h2zm7.948-11.684-1.896-.633 4-12 1.896.633zm5.345-1.023 5.293-5.293-5.293-5.293 1.414-1.414 6.707 6.707-6.707 6.707zm-16.707-5.293 6.707-6.707 1.414 1.414-5.293 5.293 5.293 5.293-1.414 1.414z" fill="url(#a)"/></svg>