<svg enable-background="new 0 0 64 64" height="512" viewBox="0 0 64 64" width="512" xmlns="http://www.w3.org/2000/svg" xmlns:xlink="http://www.w3.org/1999/xlink"><linearGradient id="a" gradientUnits="userSpaceOnUse" x1="32" x2="32" y1="63" y2="1"><stop offset="0" stop-color="#9f2fff"/><stop offset="1" stop-color="#0bb1d3"/></linearGradient><path d="m57 57h2v2h-2zm-28 2h26v-2h-26zm2-6h-2v2h2zm2 2h26v-2h-26zm-4-4h30v-2h-30zm-5.341-39.753-1.317 1.506 7.139 6.247-7.14 6.247 1.317 1.506 8.861-7.753zm-9.318 0-8.86 7.753 8.86 7.753 1.317-1.506-7.139-6.247 7.14-6.247zm1.675 18.574 1.968.357 4-22-1.968-.357zm35.424-18.821 11.56 12.611v39.389h-38v-27.05c-1.88.667-3.894 1.05-6 1.05-9.925 0-18-8.075-18-18s8.075-18 18-18c7.049 0 13.148 4.083 16.101 10zm.56 12h7.727l-7.727-8.429zm-33 12c8.822 0 16-7.178 16-16s-7.178-16-16-16-16 7.178-16 16 7.178 16 16 16zm42 26v-36h-11v-12h-14.05c.668 1.88 1.05 3.894 1.05 6 0 2.876-.695 5.586-1.899 8h7.899v2h-9.044c-.475.708-1.011 1.368-1.578 2h10.622v2h-12.711c-1.011.817-2.116 1.515-3.289 2.101v25.899zm-32-26h30v12h-30zm2 10h26v-8h-26zm24-14h-10v2h10zm2 2h2v-2h-2zm-12-4h14v-2h-14z" fill="url(#a)"/></svg>