<svg height="512" viewBox="0 0 64 64" width="512" xmlns="http://www.w3.org/2000/svg" xmlns:xlink="http://www.w3.org/1999/xlink"><linearGradient id="a" gradientUnits="userSpaceOnUse" x1="32" x2="32" y1="1.306" y2="59.129"><stop offset="0" stop-color="#fc5c7d"/><stop offset=".129" stop-color="#f35e85"/><stop offset=".343" stop-color="#d9659b"/><stop offset=".616" stop-color="#b070bf"/><stop offset=".934" stop-color="#777ff0"/><stop offset="1" stop-color="#6a82fb"/></linearGradient><linearGradient id="b" x1="11" x2="11" xlink:href="#a" y1="1.306" y2="59.129"/><linearGradient id="c" x1="15" x2="15" xlink:href="#a" y1="1.306" y2="59.129"/><linearGradient id="d" x1="19" x2="19" xlink:href="#a" y1="1.306" y2="59.129"/><linearGradient id="e" x1="47" x2="47" xlink:href="#a" y1="1.306" y2="59.129"/><linearGradient id="f" x1="16.354" x2="16.354" xlink:href="#a" y1="1.306" y2="59.129"/><linearGradient id="g" x1="25.646" x2="25.646" xlink:href="#a" y1="1.306" y2="59.129"/><linearGradient id="h" gradientTransform="matrix(.243 .97 -.97 .243 38.22 -2.951)" x1="21" x2="21" xlink:href="#a" y1="1.306" y2="59.129"/><linearGradient id="i" x1="12" x2="12" xlink:href="#a" y1="1.306" y2="59.129"/><linearGradient id="j" x1="22.5" x2="22.5" xlink:href="#a" y1="1.306" y2="59.129"/><linearGradient id="k" x1="26.5" x2="26.5" xlink:href="#a" y1="1.306" y2="59.129"/><linearGradient id="l" x1="30.5" x2="30.5" xlink:href="#a" y1="1.306" y2="59.129"/><linearGradient id="m" x1="26" x2="26" xlink:href="#a" y1="1.306" y2="59.129"/><linearGradient id="n" x1="33" x2="33" xlink:href="#a" y1="1.306" y2="59.129"/><linearGradient id="o" x1="40" x2="40" xlink:href="#a" y1="1.306" y2="59.129"/><linearGradient id="p" x1="42" x2="42" xlink:href="#a" y1="1.306" y2="59.129"/><linearGradient id="q" x1="50" x2="50" xlink:href="#a" y1="1.306" y2="59.129"/><linearGradient id="r" x1="3" x2="3" xlink:href="#a" y1="1.306" y2="59.129"/><linearGradient id="s" x1="61" x2="61" xlink:href="#a" y1="1.306" y2="59.129"/><path d="m59 54h-1v-35h-2v29h-48v-32h25v-2h-25v-4a2 2 0 0 1 2-2h22v-2h-22a4 4 0 0 0 -4 4v44h-1a1 1 0 0 0 -1 1v3a4 4 0 0 0 4 4h48a4 4 0 0 0 4-4v-3a1 1 0 0 0 -1-1zm-51-4h48v4h-15a1 1 0 0 0 -.707.293l-1.707 1.707h-13.172l-1.707-1.707a1 1 0 0 0 -.707-.293h-15zm50 8a2 2 0 0 1 -2 2h-48a2 2 0 0 1 -2-2v-2h16.586l1.707 1.707a1 1 0 0 0 .707.293h14a1 1 0 0 0 .707-.293l1.707-1.707h16.586z" fill="url(#a)"/><path d="m10 10h2v2h-2z" fill="url(#b)"/><path d="m14 10h2v2h-2z" fill="url(#c)"/><path d="m18 10h2v2h-2z" fill="url(#d)"/><path d="m31 52h2v2h-2z" fill="url(#a)"/><path d="m55.707 4.293a1 1 0 0 0 -.707-.293h-16a1 1 0 0 0 -.707.293l-6 6a1 1 0 0 0 0 1.414l14 14c.014.014.033.019.048.032a.964.964 0 0 0 .217.144 1.026 1.026 0 0 0 .092.049.935.935 0 0 0 .7 0 1.026 1.026 0 0 0 .092-.049.964.964 0 0 0 .217-.144c.015-.013.034-.018.048-.032l14-14a1 1 0 0 0 0-1.414zm-10.839 5.707 2.132-3.2 2.132 3.2zm4.806 2-2.674 9.36-2.674-9.36zm-.806-6h4.264l-2.132 3.2zm-5.868 3.2-2.132-3.2h4.264zm-1.868.8h-5.718l3.431-3.43zm1.114 2 2.733 9.565-9.565-9.565zm9.508 0h6.832l-9.565 9.565zm1.114-2 2.287-3.43 3.431 3.43z" fill="url(#e)"/><path d="m17.293 19.293-3 3a1 1 0 0 0 0 1.414l3 3 1.414-1.414-2.293-2.293 2.293-2.293z" fill="url(#f)"/><path d="m24.707 26.707 3-3a1 1 0 0 0 0-1.414l-3-3-1.414 1.414 2.293 2.293-2.293 2.293z" fill="url(#g)"/><path d="m16.877 22h8.246v2h-8.246z" fill="url(#h)" transform="matrix(.243 -.97 .97 .243 -6.407 37.795)"/><g fill="url(#i)"><path d="m11 30h2v2h-2z"/><path d="m11 34h2v2h-2z"/><path d="m11 38h2v2h-2z"/><path d="m11 42h2v2h-2z"/></g><path d="m15 30h15v2h-15z" fill="url(#j)"/><path d="m15 34h23v2h-23z" fill="url(#k)"/><path d="m15 38h31v2h-31z" fill="url(#l)"/><path d="m15 42h22v2h-22z" fill="url(#m)"/><path d="m32 30h2v2h-2z" fill="url(#n)"/><path d="m39 42h2v2h-2z" fill="url(#o)"/><path d="m40 34h4v2h-4z" fill="url(#p)"/><path d="m48 38h4v2h-4z" fill="url(#q)"/><path d="m2 10h2v25h-2z" fill="url(#r)"/><g fill="url(#s)"><path d="m60 29h2v20h-2z"/><path d="m60 25h2v2h-2z"/></g></svg>