<svg version="1.1" viewBox="0.0 0.0 512.7454068241469 501.76377952755905" fill="none" stroke="none" stroke-linecap="square" stroke-miterlimit="10" xmlns:xlink="http://www.w3.org/1999/xlink" xmlns="http://www.w3.org/2000/svg"><clipPath id="p.0"><path d="m0 0l512.7454 0l0 501.7638l-512.7454 0l0 -501.7638z" clip-rule="nonzero"/></clipPath><g clip-path="url(#p.0)"><path fill="#000000" fill-opacity="0.0" d="m0 0l512.7454 0l0 501.7638l-512.7454 0z" fill-rule="evenodd"/><path fill="#cfe2f3" d="m190.01575 23.064346l125.97638 0l0 93.24139l-125.97638 0z" fill-rule="evenodd"/><path fill="#000000" fill-opacity="0.0" d="m205.7628 23.064346l0 93.24139m-15.747055 -81.58621l125.97638 0" fill-rule="evenodd"/><path fill="#000000" fill-opacity="0.0" d="m190.01575 23.064346l125.97638 0l0 93.24139l-125.97638 0z" fill-rule="evenodd"/><path stroke="#000000" stroke-width="1.0" stroke-linejoin="round" stroke-linecap="butt" d="m205.7628 23.064346l0 93.24139m-15.747055 -81.58621l125.97638 0" fill-rule="evenodd"/><path stroke="#000000" stroke-width="1.0" stroke-linejoin="round" stroke-linecap="butt" d="m190.01575 23.064346l125.97638 0l0 93.24139l-125.97638 0z" fill-rule="evenodd"/><path fill="#000000" d="m243.72406 78.972626l-2.375 -6.671875l1.453125 0l1.6875 4.9375l1.640625 -4.9375l1.4375 0l-2.390625 6.671875l-1.453125 0zm7.3598022 0l0 -0.71875q-0.265625 0.375 -0.703125 0.609375q-0.421875 0.21875 -0.90625 0.21875q-0.484375 0 -0.875 -0.203125q-0.390625 -0.21875 -0.5625 -0.609375q-0.171875 -0.390625 -0.171875 -1.078125l0 -3.0625l1.28125 0l0 2.234375q0 1.015625 0.0625 1.25q0.078125 0.21875 0.265625 0.359375q0.1875 0.140625 0.46875 0.140625q0.328125 0 0.59375 -0.171875q0.265625 -0.1875 0.359375 -0.453125q0.09375 -0.28125 0.09375 -1.3125l0 -2.046875l1.28125 0l0 4.84375l-1.1875 0zm5.307373 -1.546875l1.28125 0.21875q-0.25 0.703125 -0.78125 1.078125q-0.53125 0.359375 -1.328125 0.359375q-1.265625 0 -1.859375 -0.828125q-0.484375 -0.65625 -0.484375 -1.65625q0 -1.203125 0.625 -1.890625q0.625 -0.6875 1.59375 -0.6875q1.078125 0 1.703125 0.71875q0.625 0.71875 0.59375 2.1875l-3.203125 0q0.015625 0.5625 0.3125 0.890625q0.296875 0.3125 0.734375 0.3125q0.296875 0 0.5 -0.15625q0.203125 -0.171875 0.3125 -0.546875zm0.078125 -1.28125q-0.015625 -0.5625 -0.296875 -0.84375q-0.265625 -0.296875 -0.65625 -0.296875q-0.421875 0 -0.6875 0.3125q-0.28125 0.296875 -0.28125 0.828125l1.921875 0zm2.3128662 2.828125l0 -6.671875l2.171875 0q1.234375 0 1.609375 0.09375q0.5625 0.15625 0.953125 0.65625q0.390625 0.5 0.390625 1.296875q0 0.609375 -0.234375 1.03125q-0.21875 0.421875 -0.5625 0.671875q-0.34375 0.234375 -0.703125 0.3125q-0.46875 0.09375 -1.390625 0.09375l-0.875 0l0 2.515625l-1.359375 0zm1.359375 -5.546875l0 1.890625l0.734375 0q0.796875 0 1.0625 -0.09375q0.265625 -0.109375 0.421875 -0.328125q0.15625 -0.234375 0.15625 -0.53125q0 -0.359375 -0.21875 -0.59375q-0.21875 -0.234375 -0.546875 -0.296875q-0.234375 -0.046875 -0.96875 -0.046875l-0.640625 0zm5.8155212 2.1875l-1.15625 -0.21875q0.1875 -0.6875 0.65625 -1.03125q0.484375 -0.34375 1.4375 -0.34375q0.859375 0 1.265625 0.203125q0.421875 0.203125 0.59375 0.515625q0.171875 0.3125 0.171875 1.15625l-0.015625 1.484375q0 0.640625 0.0625 0.953125q0.0625 0.296875 0.234375 0.640625l-1.265625 0q-0.046875 -0.125 -0.125 -0.375q-0.03125 -0.109375 -0.046875 -0.15625q-0.328125 0.328125 -0.703125 0.484375q-0.375 0.15625 -0.796875 0.15625q-0.75 0 -1.1875 -0.40625q-0.421875 -0.40625 -0.421875 -1.03125q0 -0.40625 0.1875 -0.71875q0.203125 -0.328125 0.5625 -0.5q0.359375 -0.171875 1.015625 -0.296875q0.90625 -0.171875 1.25 -0.3125l0 -0.125q0 -0.375 -0.1875 -0.53125q-0.1875 -0.15625 -0.6875 -0.15625q-0.34375 0 -0.53125 0.140625q-0.1875 0.125 -0.3125 0.46875zm1.71875 1.03125q-0.25 0.09375 -0.78125 0.203125q-0.53125 0.109375 -0.703125 0.21875q-0.25 0.1875 -0.25 0.453125q0 0.265625 0.203125 0.46875q0.203125 0.1875 0.515625 0.1875q0.34375 0 0.65625 -0.21875q0.234375 -0.171875 0.296875 -0.421875q0.0625 -0.171875 0.0625 -0.625l0 -0.265625zm2.3909912 2.640625l1.46875 0.1875q0.03125 0.25 0.171875 0.34375q0.171875 0.140625 0.5625 0.140625q0.5 0 0.75 -0.15625q0.171875 -0.09375 0.265625 -0.3125q0.0625 -0.171875 0.0625 -0.59375l0 -0.703125q-0.578125 0.78125 -1.453125 0.78125q-0.984375 0 -1.546875 -0.828125q-0.453125 -0.640625 -0.453125 -1.625q0 -1.203125 0.578125 -1.84375q0.59375 -0.65625 1.46875 -0.65625q0.90625 0 1.484375 0.796875l0 -0.6875l1.1875 0l0 4.34375q0 0.859375 -0.140625 1.28125q-0.140625 0.421875 -0.390625 0.65625q-0.25 0.25 -0.6875 0.390625q-0.421875 0.140625 -1.0625 0.140625q-1.234375 0 -1.75 -0.421875q-0.515625 -0.421875 -0.515625 -1.078125q0 -0.0625 0 -0.15625zm1.140625 -2.828125q0 0.765625 0.296875 1.125q0.3125 0.359375 0.75 0.359375q0.46875 0 0.78125 -0.359375q0.328125 -0.375 0.328125 -1.09375q0 -0.75 -0.3125 -1.109375q-0.3125 -0.375 -0.78125 -0.375q-0.453125 0 -0.765625 0.359375q-0.296875 0.359375 -0.296875 1.09375zm7.479248 0.96875l1.28125 0.21875q-0.25 0.703125 -0.78125 1.078125q-0.53125 0.359375 -1.328125 0.359375q-1.265625 0 -1.859375 -0.828125q-0.484375 -0.65625 -0.484375 -1.65625q0 -1.203125 0.625 -1.890625q0.625 -0.6875 1.59375 -0.6875q1.078125 0 1.703125 0.71875q0.625 0.71875 0.59375 2.1875l-3.203125 0q0.015625 0.5625 0.3125 0.890625q0.296875 0.3125 0.734375 0.3125q0.296875 0 0.5 -0.15625q0.203125 -0.171875 0.3125 -0.546875zm0.078125 -1.28125q-0.015625 -0.5625 -0.296875 -0.84375q-0.265625 -0.296875 -0.65625 -0.296875q-0.421875 0 -0.6875 0.3125q-0.28125 0.296875 -0.28125 0.828125l1.921875 0z" fill-rule="nonzero"/><path fill="#cfe2f3" d="m173.51443 293.48032l0 0c0 -4.2066345 3.4101562 -7.616791 7.616806 -7.616791l89.86876 0c2.020111 0 3.9574585 0.8024597 5.385895 2.230896c1.4284363 1.4284363 2.230896 3.3657837 2.230896 5.385895l0 30.467194c0 4.2066345 -3.4101562 7.616791 -7.616791 7.616791l-89.86876 0l0 0c-4.20665 0 -7.616806 -3.4101562 -7.616806 -7.616791z" fill-rule="evenodd"/><path stroke="#000000" stroke-width="1.0" stroke-linejoin="round" stroke-linecap="butt" d="m173.51443 293.48032l0 0c0 -4.2066345 3.4101562 -7.616791 7.616806 -7.616791l89.86876 0c2.020111 0 3.9574585 0.8024597 5.385895 2.230896c1.4284363 1.4284363 2.230896 3.3657837 2.230896 5.385895l0 30.467194c0 4.2066345 -3.4101562 7.616791 -7.616791 7.616791l-89.86876 0l0 0c-4.20665 0 -7.616806 -3.4101562 -7.616806 -7.616791z" fill-rule="evenodd"/><path fill="#000000" d="m205.2166 312.17392l0 -6.671875l2.015625 0l1.21875 4.546875l1.203125 -4.546875l2.015625 0l0 6.671875l-1.25 0l0 -5.25l-1.328125 5.25l-1.296875 0l-1.328125 -5.25l0 5.25l-1.25 0zm7.786026 -5.5l0 -1.171875l1.28125 0l0 1.171875l-1.28125 0zm0 5.5l0 -4.84375l1.28125 0l0 4.84375l-1.28125 0zm6.8104095 -3.40625l-1.265625 0.234375q-0.0625 -0.390625 -0.296875 -0.578125q-0.21875 -0.1875 -0.578125 -0.1875q-0.484375 0 -0.765625 0.328125q-0.28125 0.328125 -0.28125 1.109375q0 0.859375 0.28125 1.21875q0.296875 0.34375 0.78125 0.34375q0.375 0 0.59375 -0.203125q0.234375 -0.203125 0.328125 -0.71875l1.265625 0.21875q-0.203125 0.859375 -0.765625 1.3125q-0.546875 0.4375 -1.484375 0.4375q-1.046875 0 -1.6875 -0.671875q-0.625 -0.671875 -0.625 -1.84375q0 -1.203125 0.625 -1.875q0.640625 -0.671875 1.71875 -0.671875q0.875 0 1.390625 0.390625q0.53125 0.375 0.765625 1.15625zm2.1878662 3.40625l-1.28125 0l0 -4.84375l1.1875 0l0 0.6875q0.3125 -0.484375 0.546875 -0.640625q0.25 -0.15625 0.5625 -0.15625q0.4375 0 0.84375 0.25l-0.390625 1.109375q-0.328125 -0.203125 -0.609375 -0.203125q-0.265625 0 -0.453125 0.15625q-0.1875 0.140625 -0.296875 0.53125q-0.109375 0.375 -0.109375 1.609375l0 1.5zm2.1145172 -2.484375q0 -0.640625 0.3125 -1.234375q0.3125 -0.59375 0.890625 -0.90625q0.578125 -0.328125 1.28125 -0.328125q1.109375 0 1.796875 0.71875q0.703125 0.71875 0.703125 1.796875q0 1.109375 -0.703125 1.828125q-0.703125 0.71875 -1.78125 0.71875q-0.671875 0 -1.28125 -0.296875q-0.59375 -0.296875 -0.90625 -0.875q-0.3125 -0.59375 -0.3125 -1.421875zm1.3125 0.0625q0 0.71875 0.34375 1.109375q0.34375 0.375 0.84375 0.375q0.5 0 0.828125 -0.375q0.34375 -0.390625 0.34375 -1.109375q0 -0.71875 -0.34375 -1.09375q-0.328125 -0.390625 -0.828125 -0.390625q-0.5 0 -0.84375 0.390625q-0.34375 0.375 -0.34375 1.09375zm10.713623 2.421875l-1.46875 0l-0.578125 -1.515625l-2.671875 0l-0.546875 1.515625l-1.4375 0l2.59375 -6.671875l1.4375 0l2.671875 6.671875zm-2.484375 -2.640625l-0.921875 -2.484375l-0.90625 2.484375l1.828125 0zm3.1583557 -2.203125l1.1875 0l0 0.71875q0.234375 -0.359375 0.625 -0.59375q0.390625 -0.234375 0.875 -0.234375q0.84375 0 1.4375 0.671875q0.59375 0.65625 0.59375 1.828125q0 1.21875 -0.59375 1.890625q-0.59375 0.671875 -1.4375 0.671875q-0.40625 0 -0.734375 -0.15625q-0.328125 -0.15625 -0.6875 -0.546875l0 2.4375l-1.265625 0l0 -6.6875zm1.265625 2.34375q0 0.8125 0.3125 1.203125q0.328125 0.390625 0.796875 0.390625q0.4375 0 0.734375 -0.359375q0.296875 -0.359375 0.296875 -1.171875q0 -0.765625 -0.3125 -1.125q-0.296875 -0.375 -0.75 -0.375q-0.46875 0 -0.78125 0.359375q-0.296875 0.359375 -0.296875 1.078125zm4.432373 -2.34375l1.1875 0l0 0.71875q0.234375 -0.359375 0.625 -0.59375q0.390625 -0.234375 0.875 -0.234375q0.84375 0 1.4375 0.671875q0.59375 0.65625 0.59375 1.828125q0 1.21875 -0.59375 1.890625q-0.59375 0.671875 -1.4375 0.671875q-0.40625 0 -0.734375 -0.15625q-0.328125 -0.15625 -0.6875 -0.546875l0 2.4375l-1.265625 0l0 -6.6875zm1.265625 2.34375q0 0.8125 0.3125 1.203125q0.328125 0.390625 0.796875 0.390625q0.4375 0 0.734375 -0.359375q0.296875 -0.359375 0.296875 -1.171875q0 -0.765625 -0.3125 -1.125q-0.296875 -0.375 -0.75 -0.375q-0.46875 0 -0.78125 0.359375q-0.296875 0.359375 -0.296875 1.078125z" fill-rule="nonzero"/><path fill="#cfe2f3" d="m17.80315 293.479l0 0c0 -4.2066345 3.4101562 -7.616791 7.6167965 -7.616791l89.86877 0c2.0201035 0 3.9574661 0.8024597 5.385895 2.230896c1.428421 1.4284363 2.2309036 3.3657837 2.2309036 5.385895l0 30.467194c0 4.2066345 -3.4101562 7.616791 -7.6167984 7.616791l-89.86877 0l0 0c-4.2066402 0 -7.6167965 -3.4101562 -7.6167965 -7.616791z" fill-rule="evenodd"/><path stroke="#000000" stroke-width="1.0" stroke-linejoin="round" stroke-linecap="butt" d="m17.80315 293.479l0 0c0 -4.2066345 3.4101562 -7.616791 7.6167965 -7.616791l89.86877 0c2.0201035 0 3.9574661 0.8024597 5.385895 2.230896c1.428421 1.4284363 2.2309036 3.3657837 2.2309036 5.385895l0 30.467194c0 4.2066345 -3.4101562 7.616791 -7.6167984 7.616791l-89.86877 0l0 0c-4.2066402 0 -7.6167965 -3.4101562 -7.6167965 -7.616791z" fill-rule="evenodd"/><path fill="#000000" d="m49.609665 310.00073l1.3125 -0.125q0.109375 0.65625 0.46875 0.96875q0.359375 0.3125 0.984375 0.3125q0.640625 0 0.96875 -0.28125q0.34375 -0.28125 0.34375 -0.640625q0 -0.234375 -0.140625 -0.40625q-0.140625 -0.171875 -0.484375 -0.28125q-0.234375 -0.09375 -1.078125 -0.296875q-1.09375 -0.265625 -1.53125 -0.65625q-0.609375 -0.5625 -0.609375 -1.34375q0 -0.515625 0.28125 -0.953125q0.296875 -0.453125 0.84375 -0.6875q0.546875 -0.234375 1.3125 -0.234375q1.25 0 1.890625 0.5625q0.640625 0.546875 0.671875 1.46875l-1.34375 0.0625q-0.09375 -0.515625 -0.375 -0.734375q-0.28125 -0.234375 -0.859375 -0.234375q-0.59375 0 -0.921875 0.234375q-0.203125 0.15625 -0.203125 0.421875q0 0.234375 0.1875 0.40625q0.265625 0.203125 1.25 0.4375q0.984375 0.234375 1.453125 0.484375q0.46875 0.25 0.734375 0.6875q0.265625 0.421875 0.265625 1.0625q0 0.5625 -0.328125 1.0625q-0.3125 0.5 -0.890625 0.75q-0.578125 0.25 -1.453125 0.25q-1.265625 0 -1.953125 -0.578125q-0.671875 -0.59375 -0.796875 -1.71875zm9.3467865 0.625l1.28125 0.21875q-0.25 0.703125 -0.78125 1.078125q-0.53125 0.359375 -1.328125 0.359375q-1.265625 0 -1.859375 -0.828125q-0.484375 -0.65625 -0.484375 -1.65625q0 -1.203125 0.625 -1.890625q0.625 -0.6875 1.59375 -0.6875q1.078125 0 1.703125 0.71875q0.625 0.71875 0.59375 2.1875l-3.203125 0q0.015625 0.5625 0.3125 0.890625q0.296875 0.3125 0.734375 0.3125q0.296875 0 0.5 -0.15625q0.203125 -0.171875 0.3125 -0.546875zm0.078125 -1.28125q-0.015625 -0.5625 -0.296875 -0.84375q-0.265625 -0.296875 -0.65625 -0.296875q-0.421875 0 -0.6875 0.3125q-0.28125 0.296875 -0.28125 0.828125l1.921875 0zm3.5316162 2.828125l-1.28125 0l0 -4.84375l1.1875 0l0 0.6875q0.3125 -0.484375 0.546875 -0.640625q0.25 -0.15625 0.5625 -0.15625q0.4375 0 0.84375 0.25l-0.390625 1.109375q-0.328125 -0.203125 -0.609375 -0.203125q-0.265625 0 -0.453125 0.15625q-0.1875 0.140625 -0.296875 0.53125q-0.109375 0.375 -0.109375 1.609375l0 1.5zm3.7395172 0l-1.953125 -4.84375l1.34375 0l0.921875 2.46875l0.25 0.828125q0.109375 -0.3125 0.140625 -0.40625q0.0625 -0.203125 0.140625 -0.421875l0.90625 -2.46875l1.328125 0l-1.921875 4.84375l-1.15625 0zm3.8597412 -5.5l0 -1.171875l1.28125 0l0 1.171875l-1.28125 0zm0 5.5l0 -4.84375l1.28125 0l0 4.84375l-1.28125 0zm6.8104095 -3.40625l-1.265625 0.234375q-0.0625 -0.390625 -0.296875 -0.578125q-0.21875 -0.1875 -0.578125 -0.1875q-0.484375 0 -0.765625 0.328125q-0.28125 0.328125 -0.28125 1.109375q0 0.859375 0.28125 1.21875q0.296875 0.34375 0.78125 0.34375q0.375 0 0.59375 -0.203125q0.234375 -0.203125 0.328125 -0.71875l1.265625 0.21875q-0.203125 0.859375 -0.765625 1.3125q-0.546875 0.4375 -1.484375 0.4375q-1.046875 0 -1.6875 -0.671875q-0.625 -0.671875 -0.625 -1.84375q0 -1.203125 0.625 -1.875q0.640625 -0.671875 1.71875 -0.671875q0.875 0 1.390625 0.390625q0.53125 0.375 0.765625 1.15625zm3.7659912 1.859375l1.28125 0.21875q-0.25 0.703125 -0.78125 1.078125q-0.53125 0.359375 -1.328125 0.359375q-1.265625 0 -1.859375 -0.828125q-0.484375 -0.65625 -0.484375 -1.65625q0 -1.203125 0.625 -1.890625q0.625 -0.6875 1.59375 -0.6875q1.078125 0 1.703125 0.71875q0.625 0.71875 0.59375 2.1875l-3.203125 0q0.015625 0.5625 0.3125 0.890625q0.296875 0.3125 0.734375 0.3125q0.296875 0 0.5 -0.15625q0.203125 -0.171875 0.3125 -0.546875zm0.078125 -1.28125q-0.015625 -0.5625 -0.296875 -0.84375q-0.265625 -0.296875 -0.65625 -0.296875q-0.421875 0 -0.6875 0.3125q-0.28125 0.296875 -0.28125 0.828125l1.921875 0zm10.5894165 2.828125l-1.46875 0l-0.578125 -1.515625l-2.671875 0l-0.546875 1.515625l-1.4375 0l2.59375 -6.671875l1.4375 0l2.671875 6.671875zm-2.484375 -2.640625l-0.921875 -2.484375l-0.90625 2.484375l1.828125 0z" fill-rule="nonzero"/><path fill="#000000" fill-opacity="0.0" d="m253.00394 116.30573c0 6.300476 0.01574707 9.45134 0.03149414 12.6009445c0.01574707 3.1496124 0.03149414 6.2979584 0.03149414 12.5959015" fill-rule="evenodd"/><path stroke="#ff0000" stroke-width="1.0" stroke-linejoin="round" stroke-linecap="butt" d="m253.00394 116.30573c0 6.300476 0.01574707 9.45134 0.03149414 12.6009445c0.007873535 1.5748138 0.01574707 3.149292 0.021652222 5.117325l0.0032043457 1.4785767" fill-rule="evenodd"/><path fill="#ff0000" stroke="#ff0000" stroke-width="1.0" stroke-linecap="butt" d="m251.40855 135.50441l1.6567535 4.53627l1.6467133 -4.539917z" fill-rule="evenodd"/><path fill="#000000" fill-opacity="0.0" d="m173.51443 308.7139c-12.652283 0 -18.977783 0.01574707 -25.30455 0.03149414c-6.326782 0.015777588 -12.654816 0.03152466 -25.309624 0.03152466" fill-rule="evenodd"/><path stroke="#ff0000" stroke-width="1.0" stroke-linejoin="round" stroke-linecap="butt" d="m173.51443 308.7139c-12.652283 0 -18.977783 0.01574707 -25.30455 0.03149414c-3.163391 0.007904053 -6.3270874 0.015777588 -10.281799 0.02166748c-1.977356 0.002960205 -4.152466 0.0054016113 -6.624161 0.0071411133l-2.403656 7.6293945E-4" fill-rule="evenodd"/><path fill="#ff0000" stroke="#ff0000" stroke-width="1.0" stroke-linecap="butt" d="m128.89973 307.12323l-4.537567 1.6531982l4.53862 1.6502686z" fill-rule="evenodd"/><path fill="#000000" fill-opacity="0.0" d="m70.35433 285.8622c0 -48.33168 0.01574707 -72.498 0.03149414 -96.66336c0.01574707 -24.16536 0.03149414 -48.329742 0.03149414 -96.659485" fill-rule="evenodd"/><path stroke="#4a86e8" stroke-width="1.0" stroke-linejoin="round" stroke-linecap="butt" d="m70.35433 285.8622c0 -48.33168 0.01574707 -72.498 0.03149414 -96.66336c0.007873535 -12.082672 0.01574707 -24.165115 0.021652222 -39.268097c0.0029525757 -7.551483 0.00541687 -15.8581085 0.0071411133 -25.297485l0.0021972656 -26.093903" fill-rule="evenodd"/><path fill="#4a86e8" stroke="#4a86e8" stroke-width="1.0" stroke-linecap="butt" d="m72.06855 98.53951l-1.6513519 -4.5382385l-1.6521149 4.537956z" fill-rule="evenodd"/><path fill="#cfe2f3" d="m17.80315 54.451443l0 0c0 -4.206642 3.4101562 -7.6167984 7.6167965 -7.6167984l89.86877 0c2.0201035 0 3.9574661 0.8024826 5.385895 2.2309113c1.428421 1.4284248 2.2309036 3.3657875 2.2309036 5.385887l0 30.46719c0 4.206642 -3.4101562 7.6167984 -7.6167984 7.6167984l-89.86877 0l0 0c-4.2066402 0 -7.6167965 -3.4101562 -7.6167965 -7.6167984z" fill-rule="evenodd"/><path stroke="#000000" stroke-width="1.0" stroke-linejoin="round" stroke-linecap="butt" d="m17.80315 54.451443l0 0c0 -4.206642 3.4101562 -7.6167984 7.6167965 -7.6167984l89.86877 0c2.0201035 0 3.9574661 0.8024826 5.385895 2.2309113c1.428421 1.4284248 2.2309036 3.3657875 2.2309036 5.385887l0 30.46719c0 4.206642 -3.4101562 7.6167984 -7.6167984 7.6167984l-89.86877 0l0 0c-4.2066402 0 -7.6167965 -3.4101562 -7.6167965 -7.6167984z" fill-rule="evenodd"/><path fill="#000000" d="m53.023315 70.69192l1.3125 0.40625q-0.3125 1.09375 -1.015625 1.625q-0.6875 0.53125 -1.765625 0.53125q-1.328125 0 -2.1875 -0.90625q-0.859375 -0.90625 -0.859375 -2.484375q0 -1.671875 0.859375 -2.59375q0.859375 -0.921875 2.265625 -0.921875q1.234375 0 2.0 0.734375q0.453125 0.421875 0.671875 1.21875l-1.328125 0.328125q-0.125 -0.515625 -0.5 -0.8125q-0.375 -0.3125 -0.90625 -0.3125q-0.75 0 -1.21875 0.53125q-0.453125 0.53125 -0.453125 1.734375q0 1.265625 0.453125 1.8125q0.453125 0.53125 1.1875 0.53125q0.546875 0 0.921875 -0.34375q0.390625 -0.34375 0.5625 -1.078125zm2.1583557 -0.03125q0 -0.640625 0.3125 -1.234375q0.3125 -0.59375 0.890625 -0.90625q0.578125 -0.328125 1.28125 -0.328125q1.109375 0 1.796875 0.71875q0.703125 0.71875 0.703125 1.796875q0 1.109375 -0.703125 1.828125q-0.703125 0.71875 -1.78125 0.71875q-0.671875 0 -1.28125 -0.296875q-0.59375 -0.296875 -0.90625 -0.875q-0.3125 -0.59375 -0.3125 -1.421875zm1.3125 0.0625q0 0.71875 0.34375 1.109375q0.34375 0.375 0.84375 0.375q0.5 0 0.828125 -0.375q0.34375 -0.390625 0.34375 -1.109375q0 -0.71875 -0.34375 -1.09375q-0.328125 -0.390625 -0.828125 -0.390625q-0.5 0 -0.84375 0.390625q-0.34375 0.375 -0.34375 1.09375zm9.072998 2.421875l-1.265625 0l0 -2.46875q0 -0.78125 -0.09375 -1.015625q-0.078125 -0.234375 -0.265625 -0.359375q-0.1875 -0.125 -0.4375 -0.125q-0.328125 0 -0.59375 0.1875q-0.265625 0.171875 -0.375 0.484375q-0.09375 0.296875 -0.09375 1.109375l0 2.1875l-1.28125 0l0 -4.84375l1.1875 0l0 0.71875q0.640625 -0.828125 1.59375 -0.828125q0.421875 0 0.765625 0.15625q0.359375 0.15625 0.53125 0.390625q0.1875 0.234375 0.25 0.546875q0.078125 0.296875 0.078125 0.859375l0 3.0zm3.526123 -4.84375l0 1.03125l-0.875 0l0 1.9375q0 0.59375 0.015625 0.703125q0.03125 0.09375 0.109375 0.15625q0.09375 0.0625 0.234375 0.0625q0.171875 0 0.515625 -0.125l0.109375 1.0q-0.453125 0.1875 -1.015625 0.1875q-0.34375 0 -0.625 -0.109375q-0.28125 -0.125 -0.421875 -0.296875q-0.125 -0.1875 -0.171875 -0.515625q-0.03125 -0.21875 -0.03125 -0.890625l0 -2.109375l-0.59375 0l0 -1.03125l0.59375 0l0 -0.953125l1.28125 -0.75l0 1.703125l0.875 0zm2.1063385 4.84375l-1.28125 0l0 -4.84375l1.1875 0l0 0.6875q0.3125 -0.484375 0.546875 -0.640625q0.25 -0.15625 0.5625 -0.15625q0.4375 0 0.84375 0.25l-0.390625 1.109375q-0.328125 -0.203125 -0.609375 -0.203125q-0.265625 0 -0.453125 0.15625q-0.1875 0.140625 -0.296875 0.53125q-0.109375 0.375 -0.109375 1.609375l0 1.5zm2.1145172 -2.484375q0 -0.640625 0.3125 -1.234375q0.3125 -0.59375 0.890625 -0.90625q0.578125 -0.328125 1.28125 -0.328125q1.109375 0 1.796875 0.71875q0.703125 0.71875 0.703125 1.796875q0 1.109375 -0.703125 1.828125q-0.703125 0.71875 -1.78125 0.71875q-0.671875 0 -1.28125 -0.296875q-0.59375 -0.296875 -0.90625 -0.875q-0.3125 -0.59375 -0.3125 -1.421875zm1.3125 0.0625q0 0.71875 0.34375 1.109375q0.34375 0.375 0.84375 0.375q0.5 0 0.828125 -0.375q0.34375 -0.390625 0.34375 -1.109375q0 -0.71875 -0.34375 -1.09375q-0.328125 -0.390625 -0.828125 -0.390625q-0.5 0 -0.84375 0.390625q-0.34375 0.375 -0.34375 1.09375zm4.682373 2.421875l0 -6.671875l1.28125 0l0 6.671875l-1.28125 0zm2.5916595 0l0 -6.671875l1.28125 0l0 6.671875l-1.28125 0zm5.3885345 -1.546875l1.28125 0.21875q-0.25 0.703125 -0.78125 1.078125q-0.53125 0.359375 -1.328125 0.359375q-1.265625 0 -1.859375 -0.828125q-0.484375 -0.65625 -0.484375 -1.65625q0 -1.203125 0.625 -1.890625q0.625 -0.6875 1.59375 -0.6875q1.078125 0 1.703125 0.71875q0.625 0.71875 0.59375 2.1875l-3.203125 0q0.015625 0.5625 0.3125 0.890625q0.296875 0.3125 0.734375 0.3125q0.296875 0 0.5 -0.15625q0.203125 -0.171875 0.3125 -0.546875zm0.078125 -1.28125q-0.015625 -0.5625 -0.296875 -0.84375q-0.265625 -0.296875 -0.65625 -0.296875q-0.421875 0 -0.6875 0.3125q-0.28125 0.296875 -0.28125 0.828125l1.921875 0zm3.5316162 2.828125l-1.28125 0l0 -4.84375l1.1875 0l0 0.6875q0.3125 -0.484375 0.546875 -0.640625q0.25 -0.15625 0.5625 -0.15625q0.4375 0 0.84375 0.25l-0.390625 1.109375q-0.328125 -0.203125 -0.609375 -0.203125q-0.265625 0 -0.453125 0.15625q-0.1875 0.140625 -0.296875 0.53125q-0.109375 0.375 -0.109375 1.609375l0 1.5z" fill-rule="nonzero"/><path fill="#000000" fill-opacity="0.0" d="m122.90551 69.685036c16.77752 0 25.16526 0.0157547 33.55503 0.03150177c8.389755 0.01574707 16.78154 0.03149414 33.56308 0.03149414" fill-rule="evenodd"/><path stroke="#4a86e8" stroke-width="1.0" stroke-linejoin="round" stroke-linecap="butt" d="m122.90551 69.685036c16.77752 0 25.16526 0.0157547 33.55503 0.03150177c4.1948853 0.007873535 8.390259 0.01574707 13.634628 0.021652222c2.6221619 0.0029525757 5.506592 0.0054092407 8.784317 0.007133484l5.1441345 0.0012512207" fill-rule="evenodd"/><path fill="#4a86e8" stroke="#4a86e8" stroke-width="1.0" stroke-linecap="butt" d="m184.02322 71.39831l4.538498 -1.6506348l-4.5377045 -1.652832z" fill-rule="evenodd"/><path fill="#cfe2f3" d="m173.51443 365.9357l0 0c0 -4.2066345 3.4101562 -7.616791 7.616806 -7.616791l89.86876 0c2.020111 0 3.9574585 0.8024597 5.385895 2.230896c1.4284363 1.4284363 2.230896 3.3657837 2.230896 5.385895l0 30.467194c0 4.2066345 -3.4101562 7.616791 -7.616791 7.616791l-89.86876 0l0 0c-4.20665 0 -7.616806 -3.4101562 -7.616806 -7.616791z" fill-rule="evenodd"/><path stroke="#000000" stroke-width="1.0" stroke-linejoin="round" stroke-linecap="butt" d="m173.51443 365.9357l0 0c0 -4.2066345 3.4101562 -7.616791 7.616806 -7.616791l89.86876 0c2.020111 0 3.9574585 0.8024597 5.385895 2.230896c1.4284363 1.4284363 2.230896 3.3657837 2.230896 5.385895l0 30.467194c0 4.2066345 -3.4101562 7.616791 -7.616791 7.616791l-89.86876 0l0 0c-4.20665 0 -7.616806 -3.4101562 -7.616806 -7.616791z" fill-rule="evenodd"/><path fill="#000000" d="m205.14777 382.45743l1.3125 -0.125q0.109375 0.65625 0.46875 0.96875q0.359375 0.3125 0.984375 0.3125q0.640625 0 0.96875 -0.28125q0.34375 -0.28125 0.34375 -0.640625q0 -0.234375 -0.140625 -0.40625q-0.140625 -0.171875 -0.484375 -0.28125q-0.234375 -0.09375 -1.078125 -0.296875q-1.09375 -0.265625 -1.53125 -0.65625q-0.609375 -0.5625 -0.609375 -1.34375q0 -0.515625 0.28125 -0.953125q0.296875 -0.453125 0.84375 -0.6875q0.546875 -0.234375 1.3125 -0.234375q1.25 0 1.890625 0.5625q0.640625 0.546875 0.671875 1.46875l-1.34375 0.0625q-0.09375 -0.515625 -0.375 -0.734375q-0.28125 -0.234375 -0.859375 -0.234375q-0.59375 0 -0.921875 0.234375q-0.203125 0.15625 -0.203125 0.421875q0 0.234375 0.1875 0.40625q0.265625 0.203125 1.25 0.4375q0.984375 0.234375 1.453125 0.484375q0.46875 0.25 0.734375 0.6875q0.265625 0.421875 0.265625 1.0625q0 0.5625 -0.328125 1.0625q-0.3125 0.5 -0.890625 0.75q-0.578125 0.25 -1.453125 0.25q-1.265625 0 -1.953125 -0.578125q-0.671875 -0.59375 -0.796875 -1.71875zm9.3467865 0.625l1.28125 0.21875q-0.25 0.703125 -0.78125 1.078125q-0.53125 0.359375 -1.328125 0.359375q-1.265625 0 -1.859375 -0.828125q-0.484375 -0.65625 -0.484375 -1.65625q0 -1.203125 0.625 -1.890625q0.625 -0.6875 1.59375 -0.6875q1.078125 0 1.703125 0.71875q0.625 0.71875 0.59375 2.1875l-3.203125 0q0.015625 0.5625 0.3125 0.890625q0.296875 0.3125 0.734375 0.3125q0.296875 0 0.5 -0.15625q0.203125 -0.171875 0.3125 -0.546875zm0.078125 -1.28125q-0.015625 -0.5625 -0.296875 -0.84375q-0.265625 -0.296875 -0.65625 -0.296875q-0.421875 0 -0.6875 0.3125q-0.28125 0.296875 -0.28125 0.828125l1.921875 0zm3.5316162 2.828125l-1.28125 0l0 -4.84375l1.1875 0l0 0.6875q0.3125 -0.484375 0.546875 -0.640625q0.25 -0.15625 0.5625 -0.15625q0.4375 0 0.84375 0.25l-0.390625 1.109375q-0.328125 -0.203125 -0.609375 -0.203125q-0.265625 0 -0.453125 0.15625q-0.1875 0.140625 -0.296875 0.53125q-0.109375 0.375 -0.109375 1.609375l0 1.5zm3.7395172 0l-1.953125 -4.84375l1.34375 0l0.921875 2.46875l0.25 0.828125q0.109375 -0.3125 0.140625 -0.40625q0.0625 -0.203125 0.140625 -0.421875l0.90625 -2.46875l1.328125 0l-1.921875 4.84375l-1.15625 0zm3.8597412 -5.5l0 -1.171875l1.28125 0l0 1.171875l-1.28125 0zm0 5.5l0 -4.84375l1.28125 0l0 4.84375l-1.28125 0zm6.8104095 -3.40625l-1.265625 0.234375q-0.0625 -0.390625 -0.296875 -0.578125q-0.21875 -0.1875 -0.578125 -0.1875q-0.484375 0 -0.765625 0.328125q-0.28125 0.328125 -0.28125 1.109375q0 0.859375 0.28125 1.21875q0.296875 0.34375 0.78125 0.34375q0.375 0 0.59375 -0.203125q0.234375 -0.203125 0.328125 -0.71875l1.265625 0.21875q-0.203125 0.859375 -0.765625 1.3125q-0.546875 0.4375 -1.484375 0.4375q-1.046875 0 -1.6875 -0.671875q-0.625 -0.671875 -0.625 -1.84375q0 -1.203125 0.625 -1.875q0.640625 -0.671875 1.71875 -0.671875q0.875 0 1.390625 0.390625q0.53125 0.375 0.765625 1.15625zm3.7659912 1.859375l1.28125 0.21875q-0.25 0.703125 -0.78125 1.078125q-0.53125 0.359375 -1.328125 0.359375q-1.265625 0 -1.859375 -0.828125q-0.484375 -0.65625 -0.484375 -1.65625q0 -1.203125 0.625 -1.890625q0.625 -0.6875 1.59375 -0.6875q1.078125 0 1.703125 0.71875q0.625 0.71875 0.59375 2.1875l-3.203125 0q0.015625 0.5625 0.3125 0.890625q0.296875 0.3125 0.734375 0.3125q0.296875 0 0.5 -0.15625q0.203125 -0.171875 0.3125 -0.546875zm0.078125 -1.28125q-0.015625 -0.5625 -0.296875 -0.84375q-0.265625 -0.296875 -0.65625 -0.296875q-0.421875 0 -0.6875 0.3125q-0.28125 0.296875 -0.28125 0.828125l1.921875 0zm4.9201508 -3.84375l2.671875 0q0.78125 0 1.171875 0.0625q0.390625 0.0625 0.6875 0.28125q0.3125 0.203125 0.515625 0.5625q0.21875 0.34375 0.21875 0.765625q0 0.46875 -0.265625 0.859375q-0.25 0.390625 -0.671875 0.59375q0.609375 0.171875 0.9375 0.609375q0.328125 0.421875 0.328125 1.0q0 0.453125 -0.21875 0.890625q-0.203125 0.421875 -0.578125 0.6875q-0.359375 0.25 -0.90625 0.3125q-0.328125 0.03125 -1.625 0.046875l-2.265625 0l0 -6.671875zm1.34375 1.109375l0 1.546875l0.890625 0q0.78125 0 0.96875 -0.03125q0.34375 -0.03125 0.546875 -0.234375q0.203125 -0.203125 0.203125 -0.53125q0 -0.296875 -0.171875 -0.484375q-0.171875 -0.203125 -0.515625 -0.25q-0.203125 -0.015625 -1.140625 -0.015625l-0.78125 0zm0 2.65625l0 1.78125l1.25 0q0.734375 0 0.921875 -0.046875q0.296875 -0.046875 0.484375 -0.25q0.1875 -0.21875 0.1875 -0.578125q0 -0.296875 -0.140625 -0.5q-0.140625 -0.21875 -0.421875 -0.3125q-0.265625 -0.09375 -1.1875 -0.09375l-1.09375 0z" fill-rule="nonzero"/><path fill="#000000" fill-opacity="0.0" d="m70.35433 285.8622c0 -12.5 38.92913 -25.007874 77.85827 -25.0c38.92914 0.007873535 77.85826 12.531494 77.85826 25.062988" fill-rule="evenodd"/><path stroke="#ff0000" stroke-width="1.0" stroke-linejoin="round" stroke-linecap="butt" d="m70.35433 285.8622c0 -12.5 38.92913 -25.007874 77.85827 -25.0c19.46457 0.0039367676 38.92914 3.1368103 53.527557 7.835144c7.2992096 2.3491516 13.381882 5.0896606 17.63977 8.026123c1.0644684 0.73410034 2.0148773 1.4804993 2.8417358 2.236023c0.41345215 0.3777771 0.79599 0.757843 1.1464386 1.1398315c0.087631226 0.09552002 0.17323303 0.19113159 0.25683594 0.28686523l0.037200928 0.043701172" fill-rule="evenodd"/><path fill="#ff0000" stroke="#ff0000" stroke-width="1.0" stroke-linecap="butt" d="m222.14935 281.09302l3.3346252 3.4932556l-0.3090515 -4.819458z" fill-rule="evenodd"/><path fill="#000000" fill-opacity="0.0" d="m226.06561 331.5643c0 6.6886597 0.01574707 10.03479 0.03149414 13.377289c0.01574707 3.3425293 0.0315094 6.6814575 0.0315094 13.3628845" fill-rule="evenodd"/><path stroke="#ff0000" stroke-width="1.0" stroke-linejoin="round" stroke-linecap="butt" d="m226.06561 331.5643c0 6.6886597 0.01574707 10.03479 0.03149414 13.377289c0.007873535 1.6712646 0.01574707 3.3416443 0.021652222 5.429352l0.0039367676 1.9335327" fill-rule="evenodd"/><path fill="#ff0000" stroke="#ff0000" stroke-width="1.0" stroke-linecap="butt" d="m224.47098 352.3061l1.656189 4.5364685l1.6472778 -4.5397034z" fill-rule="evenodd"/><path fill="#000000" fill-opacity="0.0" d="m226.06561 404.01968c0 12.494629 -38.929123 34.044342 -77.85826 24.989227c-38.92914 -9.055115 -77.85827 -48.715088 -77.85827 -97.430176" fill-rule="evenodd"/><path stroke="#4a86e8" stroke-width="1.0" stroke-linejoin="round" stroke-linecap="butt" d="m226.06561 404.01968c0 12.494629 -38.929123 34.044342 -77.85826 24.989227c-19.46457 -4.5275574 -38.92914 -16.70633 -53.527565 -33.84262c-7.2992096 -8.568115 -13.381889 -18.37561 -17.639763 -29.085785c-2.1289368 -5.355072 -3.801674 -10.935822 -4.942169 -16.700134c-0.57025146 -2.8821716 -1.0074463 -5.8102417 -1.3020782 -8.778931c-0.073654175 -0.742157 -0.13840485 -1.4868774 -0.1940918 -2.2340393l-0.054122925 -0.79193115" fill-rule="evenodd"/><path fill="#4a86e8" stroke="#4a86e8" stroke-width="1.0" stroke-linecap="butt" d="m72.19839 337.5208l-1.8009491 -4.480957l-1.5007019 4.5902405z" fill-rule="evenodd"/><path fill="#000000" fill-opacity="0.0" d="m70.35433 92.53543c0 48.33168 38.92913 72.498 77.85827 96.663345c38.92914 24.16536 77.85826 48.329742 77.85826 96.6595" fill-rule="evenodd"/><path stroke="#ff0000" stroke-width="1.0" stroke-linejoin="round" stroke-linecap="butt" d="m70.35433 92.53543c0 48.33168 38.92913 72.498 77.85827 96.663345c19.46457 12.082672 38.92914 24.165115 53.527557 39.268112c7.2992096 7.551483 13.381882 15.858124 17.63977 25.297485c2.1289368 4.7196655 3.8016663 9.722534 4.942169 15.055786c0.57025146 2.666626 1.0074463 5.415863 1.3020782 8.253571c0.073654175 0.7094116 0.13839722 1.4243774 0.1940918 2.144989l0.04547119 0.64312744" fill-rule="evenodd"/><path fill="#ff0000" stroke="#ff0000" stroke-width="1.0" stroke-linecap="butt" d="m224.21298 279.91885l1.8074188 4.4783936l1.4940796 -4.5924377z" fill-rule="evenodd"/><path fill="#cfe2f3" d="m200.45013 149.12466l0 0c0 -4.2066345 3.4101562 -7.616791 7.616791 -7.616791l89.868774 0c2.020111 0 3.9574585 0.802475 5.385895 2.2309113c1.4284058 1.428421 2.230896 3.3657837 2.230896 5.3858795l0 30.467194c0 4.20665 -3.4101562 7.616806 -7.616791 7.616806l-89.868774 0l0 0c-4.2066345 0 -7.616791 -3.4101562 -7.616791 -7.616806z" fill-rule="evenodd"/><path stroke="#000000" stroke-width="1.0" stroke-linejoin="round" stroke-linecap="butt" d="m200.45013 149.12466l0 0c0 -4.2066345 3.4101562 -7.616791 7.616791 -7.616791l89.868774 0c2.020111 0 3.9574585 0.802475 5.385895 2.2309113c1.4284058 1.428421 2.230896 3.3657837 2.230896 5.3858795l0 30.467194c0 4.20665 -3.4101562 7.616806 -7.616791 7.616806l-89.868774 0l0 0c-4.2066345 0 -7.616791 -3.4101562 -7.616791 -7.616806z" fill-rule="evenodd"/><path fill="#000000" d="m245.19527 167.81827l-1.46875 0l-0.578125 -1.515625l-2.671875 0l-0.546875 1.515625l-1.4375 0l2.59375 -6.671875l1.4375 0l2.671875 6.671875zm-2.484375 -2.640625l-0.921875 -2.484375l-0.90625 2.484375l1.828125 0zm7.4083557 -0.765625l-1.265625 0.234375q-0.0625 -0.390625 -0.296875 -0.578125q-0.21875 -0.1875 -0.578125 -0.1875q-0.484375 0 -0.765625 0.328125q-0.28125 0.328125 -0.28125 1.109375q0 0.859375 0.28125 1.21875q0.296875 0.34375 0.78125 0.34375q0.375 0 0.59375 -0.203125q0.234375 -0.203125 0.328125 -0.71875l1.265625 0.21875q-0.203125 0.859375 -0.765625 1.3125q-0.546875 0.4375 -1.484375 0.4375q-1.046875 0 -1.6875 -0.671875q-0.625 -0.671875 -0.625 -1.84375q0 -1.203125 0.625 -1.875q0.640625 -0.671875 1.71875 -0.671875q0.875 0 1.390625 0.390625q0.53125 0.375 0.765625 1.15625zm3.1878662 -1.4375l0 1.03125l-0.875 0l0 1.9375q0 0.59375 0.015625 0.703125q0.03125 0.09375 0.109375 0.15625q0.09375 0.0625 0.234375 0.0625q0.171875 0 0.515625 -0.125l0.109375 1.0q-0.453125 0.1875 -1.015625 0.1875q-0.34375 0 -0.625 -0.109375q-0.28125 -0.125 -0.421875 -0.296875q-0.125 -0.1875 -0.171875 -0.515625q-0.03125 -0.21875 -0.03125 -0.890625l0 -2.109375l-0.59375 0l0 -1.03125l0.59375 0l0 -0.953125l1.28125 -0.75l0 1.703125l0.875 0zm0.8875885 -0.65625l0 -1.171875l1.28125 0l0 1.171875l-1.28125 0zm0 5.5l0 -4.84375l1.28125 0l0 4.84375l-1.28125 0zm2.2947998 -2.484375q0 -0.640625 0.3125 -1.234375q0.3125 -0.59375 0.890625 -0.90625q0.578125 -0.328125 1.28125 -0.328125q1.109375 0 1.796875 0.71875q0.703125 0.71875 0.703125 1.796875q0 1.109375 -0.703125 1.828125q-0.703125 0.71875 -1.78125 0.71875q-0.671875 0 -1.28125 -0.296875q-0.59375 -0.296875 -0.90625 -0.875q-0.3125 -0.59375 -0.3125 -1.421875zm1.3125 0.0625q0 0.71875 0.34375 1.109375q0.34375 0.375 0.84375 0.375q0.5 0 0.828125 -0.375q0.34375 -0.390625 0.34375 -1.109375q0 -0.71875 -0.34375 -1.09375q-0.328125 -0.390625 -0.828125 -0.390625q-0.5 0 -0.84375 0.390625q-0.34375 0.375 -0.34375 1.09375zm9.072998 2.421875l-1.265625 0l0 -2.46875q0 -0.78125 -0.09375 -1.015625q-0.078125 -0.234375 -0.265625 -0.359375q-0.1875 -0.125 -0.4375 -0.125q-0.328125 0 -0.59375 0.1875q-0.265625 0.171875 -0.375 0.484375q-0.09375 0.296875 -0.09375 1.109375l0 2.1875l-1.28125 0l0 -4.84375l1.1875 0l0 0.71875q0.640625 -0.828125 1.59375 -0.828125q0.421875 0 0.765625 0.15625q0.359375 0.15625 0.53125 0.390625q0.1875 0.234375 0.25 0.546875q0.078125 0.296875 0.078125 0.859375l0 3.0z" fill-rule="nonzero"/><path fill="#cfe2f3" d="m289.0551 365.9357l0 0c0 -4.2066345 3.4101562 -7.616791 7.616791 -7.616791l89.868774 0c2.020111 0 3.9574585 0.8024597 5.385895 2.230896c1.4284363 1.4284363 2.230896 3.3657837 2.230896 5.385895l0 30.467194c0 4.2066345 -3.4101562 7.616791 -7.616791 7.616791l-89.868774 0l0 0c-4.2066345 0 -7.616791 -3.4101562 -7.616791 -7.616791z" fill-rule="evenodd"/><path stroke="#000000" stroke-width="1.0" stroke-linejoin="round" stroke-linecap="butt" d="m289.0551 365.9357l0 0c0 -4.2066345 3.4101562 -7.616791 7.616791 -7.616791l89.868774 0c2.020111 0 3.9574585 0.8024597 5.385895 2.230896c1.4284363 1.4284363 2.230896 3.3657837 2.230896 5.385895l0 30.467194c0 4.2066345 -3.4101562 7.616791 -7.616791 7.616791l-89.868774 0l0 0c-4.2066345 0 -7.616791 -3.4101562 -7.616791 -7.616791z" fill-rule="evenodd"/><path fill="#000000" d="m320.68845 382.45743l1.3125 -0.125q0.109375 0.65625 0.46875 0.96875q0.359375 0.3125 0.984375 0.3125q0.640625 0 0.96875 -0.28125q0.34375 -0.28125 0.34375 -0.640625q0 -0.234375 -0.140625 -0.40625q-0.140625 -0.171875 -0.484375 -0.28125q-0.234375 -0.09375 -1.078125 -0.296875q-1.09375 -0.265625 -1.53125 -0.65625q-0.609375 -0.5625 -0.609375 -1.34375q0 -0.515625 0.28125 -0.953125q0.296875 -0.453125 0.84375 -0.6875q0.546875 -0.234375 1.3125 -0.234375q1.25 0 1.890625 0.5625q0.640625 0.546875 0.671875 1.46875l-1.34375 0.0625q-0.09375 -0.515625 -0.375 -0.734375q-0.28125 -0.234375 -0.859375 -0.234375q-0.59375 0 -0.921875 0.234375q-0.203125 0.15625 -0.203125 0.421875q0 0.234375 0.1875 0.40625q0.265625 0.203125 1.25 0.4375q0.984375 0.234375 1.453125 0.484375q0.46875 0.25 0.734375 0.6875q0.265625 0.421875 0.265625 1.0625q0 0.5625 -0.328125 1.0625q-0.3125 0.5 -0.890625 0.75q-0.578125 0.25 -1.453125 0.25q-1.265625 0 -1.953125 -0.578125q-0.671875 -0.59375 -0.796875 -1.71875zm9.346802 0.625l1.28125 0.21875q-0.25 0.703125 -0.78125 1.078125q-0.53125 0.359375 -1.328125 0.359375q-1.265625 0 -1.859375 -0.828125q-0.484375 -0.65625 -0.484375 -1.65625q0 -1.203125 0.625 -1.890625q0.625 -0.6875 1.59375 -0.6875q1.078125 0 1.703125 0.71875q0.625 0.71875 0.59375 2.1875l-3.203125 0q0.015625 0.5625 0.3125 0.890625q0.296875 0.3125 0.734375 0.3125q0.296875 0 0.5 -0.15625q0.203125 -0.171875 0.3125 -0.546875zm0.078125 -1.28125q-0.015625 -0.5625 -0.296875 -0.84375q-0.265625 -0.296875 -0.65625 -0.296875q-0.421875 0 -0.6875 0.3125q-0.28125 0.296875 -0.28125 0.828125l1.921875 0zm3.5316162 2.828125l-1.28125 0l0 -4.84375l1.1875 0l0 0.6875q0.3125 -0.484375 0.546875 -0.640625q0.25 -0.15625 0.5625 -0.15625q0.4375 0 0.84375 0.25l-0.390625 1.109375q-0.328125 -0.203125 -0.609375 -0.203125q-0.265625 0 -0.453125 0.15625q-0.1875 0.140625 -0.296875 0.53125q-0.109375 0.375 -0.109375 1.609375l0 1.5zm3.739502 0l-1.953125 -4.84375l1.34375 0l0.921875 2.46875l0.25 0.828125q0.109375 -0.3125 0.140625 -0.40625q0.0625 -0.203125 0.140625 -0.421875l0.90625 -2.46875l1.328125 0l-1.921875 4.84375l-1.15625 0zm3.8597412 -5.5l0 -1.171875l1.28125 0l0 1.171875l-1.28125 0zm0 5.5l0 -4.84375l1.28125 0l0 4.84375l-1.28125 0zm6.810425 -3.40625l-1.265625 0.234375q-0.0625 -0.390625 -0.296875 -0.578125q-0.21875 -0.1875 -0.578125 -0.1875q-0.484375 0 -0.765625 0.328125q-0.28125 0.328125 -0.28125 1.109375q0 0.859375 0.28125 1.21875q0.296875 0.34375 0.78125 0.34375q0.375 0 0.59375 -0.203125q0.234375 -0.203125 0.328125 -0.71875l1.265625 0.21875q-0.203125 0.859375 -0.765625 1.3125q-0.546875 0.4375 -1.484375 0.4375q-1.046875 0 -1.6875 -0.671875q-0.625 -0.671875 -0.625 -1.84375q0 -1.203125 0.625 -1.875q0.640625 -0.671875 1.71875 -0.671875q0.875 0 1.390625 0.390625q0.53125 0.375 0.765625 1.15625zm3.7659912 1.859375l1.28125 0.21875q-0.25 0.703125 -0.78125 1.078125q-0.53125 0.359375 -1.328125 0.359375q-1.265625 0 -1.859375 -0.828125q-0.484375 -0.65625 -0.484375 -1.65625q0 -1.203125 0.625 -1.890625q0.625 -0.6875 1.59375 -0.6875q1.078125 0 1.703125 0.71875q0.625 0.71875 0.59375 2.1875l-3.203125 0q0.015625 0.5625 0.3125 0.890625q0.296875 0.3125 0.734375 0.3125q0.296875 0 0.5 -0.15625q0.203125 -0.171875 0.3125 -0.546875zm0.078125 -1.28125q-0.015625 -0.5625 -0.296875 -0.84375q-0.265625 -0.296875 -0.65625 -0.296875q-0.421875 0 -0.6875 0.3125q-0.28125 0.296875 -0.28125 0.828125l1.921875 0zm9.1857605 0.375l1.3125 0.40625q-0.3125 1.09375 -1.015625 1.625q-0.6875 0.53125 -1.765625 0.53125q-1.328125 0 -2.1875 -0.90625q-0.859375 -0.90625 -0.859375 -2.484375q0 -1.671875 0.859375 -2.59375q0.859375 -0.921875 2.265625 -0.921875q1.234375 0 2.0 0.734375q0.453125 0.421875 0.671875 1.21875l-1.328125 0.328125q-0.125 -0.515625 -0.5 -0.8125q-0.375 -0.3125 -0.90625 -0.3125q-0.75 0 -1.21875 0.53125q-0.453125 0.53125 -0.453125 1.734375q0 1.265625 0.453125 1.8125q0.453125 0.53125 1.1875 0.53125q0.546875 0 0.921875 -0.34375q0.390625 -0.34375 0.5625 -1.078125z" fill-rule="nonzero"/><path fill="#000000" fill-opacity="0.0" d="m278.6168 308.7139c31.496063 0 62.992126 24.803162 62.992126 49.606323" fill-rule="evenodd"/><path stroke="#ff0000" stroke-width="1.0" stroke-linejoin="round" stroke-linecap="butt" d="m278.6168 308.7139c15.748047 0 31.496063 6.2008057 43.3071 15.501984c5.9055176 4.6505737 10.826782 10.076263 14.271637 15.889526c1.7224426 2.9066162 3.0758057 5.910095 3.9985352 8.962067c0.23068237 0.7630005 0.43447876 1.5289917 0.61035156 2.2972717c0.04397583 0.19210815 0.08621216 0.38430786 0.12667847 0.57666016l0.08215332 0.40844727" fill-rule="evenodd"/><path fill="#ff0000" stroke="#ff0000" stroke-width="1.0" stroke-linecap="butt" d="m339.3697 352.51382l2.0940857 4.351715l1.1930542 -4.679657z" fill-rule="evenodd"/><path fill="#000000" fill-opacity="0.0" d="m341.6063 404.01968c0 34.58258 -67.811005 78.220276 -135.62204 69.16516c-67.81102 -9.055115 -135.62204 -70.80304 -135.62204 -141.60611" fill-rule="evenodd"/><path stroke="#4a86e8" stroke-width="1.0" stroke-linejoin="round" stroke-linecap="butt" d="m341.6063 404.01968c0 34.58261 -67.811005 78.220276 -135.62204 69.16516c-33.905518 -4.5275574 -67.81102 -22.228302 -93.24016 -47.647552c-12.714569 -12.709656 -23.310043 -27.348877 -30.726868 -43.235962c-3.7084198 -7.9434814 -6.6221695 -16.198975 -8.608826 -24.681122c-0.9933243 -4.2411194 -1.7548752 -8.538879 -2.268097 -12.88269c-0.25660706 -2.171875 -0.4511261 -4.3552856 -0.5815048 -6.5488586l-0.034118652 -0.6121216" fill-rule="evenodd"/><path fill="#4a86e8" stroke="#4a86e8" stroke-width="1.0" stroke-linecap="butt" d="m72.175804 337.5318l-1.7740097 -4.491699l-1.528244 4.5811768z" fill-rule="evenodd"/><path fill="#000000" fill-opacity="0.0" d="m200.45013 164.35826c-65.055115 0 -130.11023 -35.905502 -130.11023 -71.81102" fill-rule="evenodd"/><path stroke="#ff0000" stroke-width="1.0" stroke-linejoin="round" stroke-linecap="butt" d="m200.45013 164.35826c-32.527557 0 -65.055115 -8.976364 -89.45079 -22.440933c-12.197838 -6.7322845 -22.362694 -14.5866165 -29.478104 -23.001976c-3.557701 -4.207672 -6.353035 -8.555611 -8.258949 -12.973671c-0.95295715 -2.2090302 -1.683548 -4.4355927 -2.175911 -6.6709213c-0.030776978 -0.13970947 -0.06061554 -0.27944183 -0.089523315 -0.41921997l-0.066711426 -0.33340454" fill-rule="evenodd"/><path fill="#ff0000" stroke="#ff0000" stroke-width="1.0" stroke-linecap="butt" d="m72.57387 98.35565l-2.0901566 -4.3535995l-1.1972809 4.678581z" fill-rule="evenodd"/><path fill="#cfe2f3" d="m17.834646 190.39633l0 0c0 -4.20665 3.4101562 -7.616806 7.6167965 -7.616806l89.868774 0c2.0200958 0 3.9574585 0.80249023 5.385887 2.2309113c1.4284286 1.428421 2.2309036 3.3657837 2.2309036 5.385895l0 30.467178c0 4.20665 -3.4101562 7.616806 -7.616791 7.616806l-89.868774 0l0 0c-4.2066402 0 -7.6167965 -3.4101562 -7.6167965 -7.616806z" fill-rule="evenodd"/><path stroke="#000000" stroke-width="1.0" stroke-linejoin="round" stroke-linecap="butt" d="m17.834646 190.39633l0 0c0 -4.20665 3.4101562 -7.616806 7.6167965 -7.616806l89.868774 0c2.0200958 0 3.9574585 0.80249023 5.385887 2.2309113c1.4284286 1.428421 2.2309036 3.3657837 2.2309036 5.385895l0 30.467178c0 4.20665 -3.4101562 7.616806 -7.616791 7.616806l-89.868774 0l0 0c-4.2066402 0 -7.6167965 -3.4101562 -7.6167965 -7.616806z" fill-rule="evenodd"/><path fill="#000000" d="m59.32448 206.91805l1.3125 -0.125q0.109375 0.65625 0.46875 0.96875q0.359375 0.3125 0.984375 0.3125q0.640625 0 0.96875 -0.28125q0.34375 -0.28125 0.34375 -0.640625q0 -0.234375 -0.140625 -0.40625q-0.140625 -0.171875 -0.484375 -0.28125q-0.234375 -0.09375 -1.078125 -0.296875q-1.09375 -0.265625 -1.53125 -0.65625q-0.609375 -0.5625 -0.609375 -1.34375q0 -0.515625 0.28125 -0.953125q0.296875 -0.453125 0.84375 -0.6875q0.546875 -0.234375 1.3125 -0.234375q1.25 0 1.890625 0.5625q0.640625 0.546875 0.671875 1.46875l-1.34375 0.0625q-0.09375 -0.515625 -0.375 -0.734375q-0.28125 -0.234375 -0.859375 -0.234375q-0.59375 0 -0.921875 0.234375q-0.203125 0.15625 -0.203125 0.421875q0 0.234375 0.1875 0.40625q0.265625 0.203125 1.25 0.4375q0.984375 0.234375 1.453125 0.484375q0.46875 0.25 0.734375 0.6875q0.265625 0.421875 0.265625 1.0625q0 0.5625 -0.328125 1.0625q-0.3125 0.5 -0.890625 0.75q-0.578125 0.25 -1.453125 0.25q-1.265625 0 -1.953125 -0.578125q-0.671875 -0.59375 -0.796875 -1.71875zm8.7686615 -2.671875l0 1.03125l-0.875 0l0 1.9375q0 0.59375 0.015625 0.703125q0.03125 0.09375 0.109375 0.15625q0.09375 0.0625 0.234375 0.0625q0.171875 0 0.515625 -0.125l0.109375 1.0q-0.453125 0.1875 -1.015625 0.1875q-0.34375 0 -0.625 -0.109375q-0.28125 -0.125 -0.421875 -0.296875q-0.125 -0.1875 -0.171875 -0.515625q-0.03125 -0.21875 -0.03125 -0.890625l0 -2.109375l-0.59375 0l0 -1.03125l0.59375 0l0 -0.953125l1.28125 -0.75l0 1.703125l0.875 0zm1.8407135 1.484375l-1.15625 -0.21875q0.1875 -0.6875 0.65625 -1.03125q0.484375 -0.34375 1.4375 -0.34375q0.859375 0 1.265625 0.203125q0.421875 0.203125 0.59375 0.515625q0.171875 0.3125 0.171875 1.15625l-0.015625 1.484375q0 0.640625 0.0625 0.953125q0.0625 0.296875 0.234375 0.640625l-1.265625 0q-0.046875 -0.125 -0.125 -0.375q-0.03125 -0.109375 -0.046875 -0.15625q-0.328125 0.328125 -0.703125 0.484375q-0.375 0.15625 -0.796875 0.15625q-0.75 0 -1.1875 -0.40625q-0.421875 -0.40625 -0.421875 -1.03125q0 -0.40625 0.1875 -0.71875q0.203125 -0.328125 0.5625 -0.5q0.359375 -0.171875 1.015625 -0.296875q0.90625 -0.171875 1.25 -0.3125l0 -0.125q0 -0.375 -0.1875 -0.53125q-0.1875 -0.15625 -0.6875 -0.15625q-0.34375 0 -0.53125 0.140625q-0.1875 0.125 -0.3125 0.46875zm1.71875 1.03125q-0.25 0.09375 -0.78125 0.203125q-0.53125 0.109375 -0.703125 0.21875q-0.25 0.1875 -0.25 0.453125q0 0.265625 0.203125 0.46875q0.203125 0.1875 0.515625 0.1875q0.34375 0 0.65625 -0.21875q0.234375 -0.171875 0.296875 -0.421875q0.0625 -0.171875 0.0625 -0.625l0 -0.265625zm4.734741 -2.515625l0 1.03125l-0.875 0l0 1.9375q0 0.59375 0.015625 0.703125q0.03125 0.09375 0.109375 0.15625q0.09375 0.0625 0.234375 0.0625q0.171875 0 0.515625 -0.125l0.109375 1.0q-0.453125 0.1875 -1.015625 0.1875q-0.34375 0 -0.625 -0.109375q-0.28125 -0.125 -0.421875 -0.296875q-0.125 -0.1875 -0.171875 -0.515625q-0.03125 -0.21875 -0.03125 -0.890625l0 -2.109375l-0.59375 0l0 -1.03125l0.59375 0l0 -0.953125l1.28125 -0.75l0 1.703125l0.875 0zm3.6844635 3.296875l1.28125 0.21875q-0.25 0.703125 -0.78125 1.078125q-0.53125 0.359375 -1.328125 0.359375q-1.265625 0 -1.859375 -0.828125q-0.484375 -0.65625 -0.484375 -1.65625q0 -1.203125 0.625 -1.890625q0.625 -0.6875 1.59375 -0.6875q1.078125 0 1.703125 0.71875q0.625 0.71875 0.59375 2.1875l-3.203125 0q0.015625 0.5625 0.3125 0.890625q0.296875 0.3125 0.734375 0.3125q0.296875 0 0.5 -0.15625q0.203125 -0.171875 0.3125 -0.546875zm0.078125 -1.28125q-0.015625 -0.5625 -0.296875 -0.84375q-0.265625 -0.296875 -0.65625 -0.296875q-0.421875 0 -0.6875 0.3125q-0.28125 0.296875 -0.28125 0.828125l1.921875 0z" fill-rule="nonzero"/><path fill="#000000" fill-opacity="0.0" d="m394.15747 381.16928c17.118134 0 34.236237 -29.102356 34.236237 -58.204712" fill-rule="evenodd"/><path stroke="#9900ff" stroke-width="1.0" stroke-linejoin="round" stroke-linecap="butt" d="m397.56366 380.79135l0.19873047 -0.0435791c0.13308716 -0.030822754 0.26608276 -0.06335449 0.39898682 -0.097473145c0.26583862 -0.06826782 0.53134155 -0.14312744 0.7964783 -0.22436523c0.5302124 -0.16253662 1.0589294 -0.35079956 1.5854797 -0.56396484c2.1063538 -0.8526306 4.1792297 -2.103119 6.185272 -3.694641c4.0120544 -3.183075 7.7566223 -7.730316 10.966278 -13.187012c3.2096558 -5.4566956 5.8843384 -11.822845 7.756653 -18.643707c0.9361267 -3.410431 1.6716614 -6.93454 2.1731873 -10.515503c0.12536621 -0.89523315 0.2361145 -1.7940063 0.33172607 -2.695465c0.047821045 -0.45074463 0.09182739 -0.9021301 0.13195801 -1.3540955c0.020111084 -0.22595215 0.039215088 -0.4520874 0.05734253 -0.6783142l0.010131836 -0.13339233" fill-rule="evenodd"/><path fill="#9900ff" stroke="#9900ff" stroke-width="1.0" stroke-linecap="butt" d="m397.56366 380.79135l0.9937134 -1.2417603l-2.9468994 1.4584656l3.1949463 0.77697754z" fill-rule="evenodd"/><path fill="#9900ff" stroke="#9900ff" stroke-width="1.0" stroke-linecap="butt" d="m429.8063 329.02533l-1.4705505 -4.600006l-1.8303223 4.469055z" fill-rule="evenodd"/><path fill="#cfe2f3" d="m369.28348 264.69553l0 0c0 4.596588 26.468079 8.322845 59.118103 8.322845c32.650024 0 59.118103 -3.7262573 59.118103 -8.322845l0 49.93701c0 4.596588 -26.468079 8.322845 -59.118103 8.322845c-32.650024 0 -59.118103 -3.7262573 -59.118103 -8.322845z" fill-rule="evenodd"/><path fill="#e2edf7" d="m369.28348 264.69553l0 0c0 -4.5965576 26.468079 -8.322815 59.118103 -8.322815c32.650024 0 59.118103 3.7262573 59.118103 8.322815l0 0c0 4.596588 -26.468079 8.322845 -59.118103 8.322845c-32.650024 0 -59.118103 -3.7262573 -59.118103 -8.322845z" fill-rule="evenodd"/><path fill="#000000" fill-opacity="0.0" d="m487.51968 264.69553l0 0c0 4.596588 -26.468079 8.322845 -59.118103 8.322845c-32.650024 0 -59.118103 -3.7262573 -59.118103 -8.322845l0 0c0 -4.5965576 26.468079 -8.322815 59.118103 -8.322815c32.650024 0 59.118103 3.7262573 59.118103 8.322815l0 49.93701c0 4.596588 -26.468079 8.322845 -59.118103 8.322845c-32.650024 0 -59.118103 -3.7262573 -59.118103 -8.322845l0 -49.93701" fill-rule="evenodd"/><path stroke="#000000" stroke-width="1.0" stroke-linejoin="round" stroke-linecap="butt" d="m487.51968 264.69553l0 0c0 4.596588 -26.468079 8.322845 -59.118103 8.322845c-32.650024 0 -59.118103 -3.7262573 -59.118103 -8.322845l0 0c0 -4.5965576 26.468079 -8.322815 59.118103 -8.322815c32.650024 0 59.118103 3.7262573 59.118103 8.322815l0 49.93701c0 4.596588 -26.468079 8.322845 -59.118103 8.322845c-32.650024 0 -59.118103 -3.7262573 -59.118103 -8.322845l0 -49.93701" fill-rule="evenodd"/><path fill="#000000" d="m412.7847 297.28546l0 -6.625l1.34375 0l0 5.5l3.359375 0l0 1.125l-4.703125 0zm6.604248 -3.359375l-1.15625 -0.21875q0.1875 -0.6875 0.65625 -1.03125q0.484375 -0.34375 1.4375 -0.34375q0.859375 0 1.265625 0.203125q0.421875 0.203125 0.59375 0.515625q0.171875 0.3125 0.171875 1.15625l-0.015625 1.484375q0 0.640625 0.0625 0.953125q0.0625 0.296875 0.234375 0.640625l-1.265625 0q-0.046875 -0.125 -0.125 -0.375q-0.03125 -0.109375 -0.046875 -0.15625q-0.328125 0.328125 -0.703125 0.484375q-0.375 0.15625 -0.796875 0.15625q-0.75 0 -1.1875 -0.40625q-0.421875 -0.40625 -0.421875 -1.03125q0 -0.40625 0.1875 -0.71875q0.203125 -0.328125 0.5625 -0.5q0.359375 -0.171875 1.015625 -0.296875q0.90625 -0.171875 1.25 -0.3125l0 -0.125q0 -0.375 -0.1875 -0.53125q-0.1875 -0.15625 -0.6875 -0.15625q-0.34375 0 -0.53125 0.140625q-0.1875 0.125 -0.3125 0.46875zm1.71875 1.03125q-0.25 0.09375 -0.78125 0.203125q-0.53125 0.109375 -0.703125 0.21875q-0.25 0.1875 -0.25 0.453125q0 0.265625 0.203125 0.46875q0.203125 0.1875 0.515625 0.1875q0.34375 0 0.65625 -0.21875q0.234375 -0.171875 0.296875 -0.421875q0.0625 -0.171875 0.0625 -0.625l0 -0.265625zm3.7347412 2.328125l-1.28125 0l0 -4.84375l1.1875 0l0 0.6875q0.3125 -0.484375 0.546875 -0.640625q0.25 -0.15625 0.5625 -0.15625q0.4375 0 0.84375 0.25l-0.390625 1.109375q-0.328125 -0.203125 -0.609375 -0.203125q-0.265625 0 -0.453125 0.15625q-0.1875 0.140625 -0.296875 0.53125q-0.109375 0.375 -0.109375 1.609375l0 1.5zm3.364502 -3.359375l-1.15625 -0.21875q0.1875 -0.6875 0.65625 -1.03125q0.484375 -0.34375 1.4375 -0.34375q0.859375 0 1.265625 0.203125q0.421875 0.203125 0.59375 0.515625q0.171875 0.3125 0.171875 1.15625l-0.015625 1.484375q0 0.640625 0.0625 0.953125q0.0625 0.296875 0.234375 0.640625l-1.265625 0q-0.046875 -0.125 -0.125 -0.375q-0.03125 -0.109375 -0.046875 -0.15625q-0.328125 0.328125 -0.703125 0.484375q-0.375 0.15625 -0.796875 0.15625q-0.75 0 -1.1875 -0.40625q-0.421875 -0.40625 -0.421875 -1.03125q0 -0.40625 0.1875 -0.71875q0.203125 -0.328125 0.5625 -0.5q0.359375 -0.171875 1.015625 -0.296875q0.90625 -0.171875 1.25 -0.3125l0 -0.125q0 -0.375 -0.1875 -0.53125q-0.1875 -0.15625 -0.6875 -0.15625q-0.34375 0 -0.53125 0.140625q-0.1875 0.125 -0.3125 0.46875zm1.71875 1.03125q-0.25 0.09375 -0.78125 0.203125q-0.53125 0.109375 -0.703125 0.21875q-0.25 0.1875 -0.25 0.453125q0 0.265625 0.203125 0.46875q0.203125 0.1875 0.515625 0.1875q0.34375 0 0.65625 -0.21875q0.234375 -0.171875 0.296875 -0.421875q0.0625 -0.171875 0.0625 -0.625l0 -0.265625zm3.8441162 2.328125l-1.953125 -4.84375l1.34375 0l0.921875 2.46875l0.25 0.828125q0.109375 -0.3125 0.140625 -0.40625q0.0625 -0.203125 0.140625 -0.421875l0.90625 -2.46875l1.328125 0l-1.921875 4.84375l-1.15625 0zm6.656616 -1.546875l1.28125 0.21875q-0.25 0.703125 -0.78125 1.078125q-0.53125 0.359375 -1.328125 0.359375q-1.265625 0 -1.859375 -0.828125q-0.484375 -0.65625 -0.484375 -1.65625q0 -1.203125 0.625 -1.890625q0.625 -0.6875 1.59375 -0.6875q1.078125 0 1.703125 0.71875q0.625 0.71875 0.59375 2.1875l-3.203125 0q0.015625 0.5625 0.3125 0.890625q0.296875 0.3125 0.734375 0.3125q0.296875 0 0.5 -0.15625q0.203125 -0.171875 0.3125 -0.546875zm0.078125 -1.28125q-0.015625 -0.5625 -0.296875 -0.84375q-0.265625 -0.296875 -0.65625 -0.296875q-0.421875 0 -0.6875 0.3125q-0.28125 0.296875 -0.28125 0.828125l1.921875 0zm2.3128662 2.828125l0 -6.671875l1.28125 0l0 6.671875l-1.28125 0z" fill-rule="nonzero"/></g></svg>